<?xml version="1.0" standalone="no"?>
<!DOCTYPE svg PUBLIC "-//W3C//DTD SVG 1.1//EN" "http://www.w3.org/Graphics/SVG/1.1/DTD/svg11.dtd" >
<svg xmlns="http://www.w3.org/2000/svg">
<metadata>
Created by FontPrep 20130207 at Tue Aug 25 10:32:21 2015
 By Lucas Germano
Copyright (c) 2010-2011 by tyPoland Lukasz Dziedzic with Reserved Font Name "Lato". Licensed under the SIL Open Font License, Version 1.1. 
</metadata>
<defs>
<font id="80d8021909d835b751af094d043ad177" horiz-adv-x='1024' >
  <font-face 
    font-family="Lato-Light"
    font-weight="300"
    font-stretch="normal"
    units-per-em="2048"
    panose-1="2 15 3 2 2 2 4 3 2 3"
    ascent="1649"
    descent="-399"
    x-height="1019"
    cap-height="1449"
    bbox="-207 -381 2222 1832"
    underline-thickness="69"
    underline-position="-135"
    unicode-range="U+000D-FB02"
  />
<missing-glyph horiz-adv-x="1049" 
d="M84 37h880v1375h-880v-1375zM48 1449h953v-1449h-953v1449zM420 271.5q0 32.5 22 56t56 23.5t56.5 -23.5t22.5 -56t-23 -56.5t-56 -24t-55.5 24t-22.5 56.5zM268 1161q114 104 240 104q125 0 198.5 -64t73.5 -167q0 -132 -96.5 -207t-116.5 -96t-22 -47l-10 -117h-67
l-6 125q-3 51 39 87t115 88.5t73 161.5q0 70 -51.5 113t-112.5 43q-60 0 -94 -12t-57.5 -26.5t-37 -26.5t-24.5 -12t-18 11z" />
    <glyph glyph-name="fi" unicode="fi" horiz-adv-x="1091" 
d="M299 1071v-84h597v-987h-98v914h-497v-914h-97v912l-144 10q-30 2 -29 25v40h173v87q0 191 109.5 299t299.5 108q78 0 131 -22l-4 -49q-1 -10 -14 -10l-89 7q-162 0 -250 -83t-88 -253z" />
    <glyph glyph-name="fl" unicode="fl" horiz-adv-x="1159" 
d="M299 1054v-67h295v-73h-293v-914h-97v912l-144 10q-30 2 -29 25v40h173v67q0 185 106.5 303t299.5 118l263 -15h74v-1460h-97v1392l-226 10q-234 0 -279.5 -134t-45.5 -214z" />
    <glyph glyph-name=".notdef" horiz-adv-x="1049" 
d="M84 37h880v1375h-880v-1375zM48 1449h953v-1449h-953v1449zM420 271.5q0 32.5 22 56t56 23.5t56.5 -23.5t22.5 -56t-23 -56.5t-56 -24t-55.5 24t-22.5 56.5zM268 1161q114 104 240 104q125 0 198.5 -64t73.5 -167q0 -132 -96.5 -207t-116.5 -96t-22 -47l-10 -117h-67
l-6 125q-3 51 39 87t115 88.5t73 161.5q0 70 -51.5 113t-112.5 43q-60 0 -94 -12t-57.5 -26.5t-37 -26.5t-24.5 -12t-18 11z" />
    <glyph glyph-name=".null" horiz-adv-x="0" 
 />
    <glyph glyph-name="nonmarkingreturn" unicode="&#xd;" horiz-adv-x="0" 
 />
    <glyph glyph-name="NULL" horiz-adv-x="0" 
 />
    <glyph glyph-name="NULL" horiz-adv-x="0" 
 />
    <glyph glyph-name="space" unicode=" " horiz-adv-x="395" 
 />
    <glyph glyph-name="exclam" unicode="!" horiz-adv-x="660" 
d="M262.5 146q26.5 28 56.5 28q50 0 78 -28t28 -58q0 -48 -27.5 -75.5t-67.5 -27.5t-67 27t-27 67q0 39 26.5 67zM286 863v586h95v-586q0 -98 -14 -364h-67q-14 266 -14 364z" />
    <glyph glyph-name="quotedbl" unicode="&#x22;" horiz-adv-x="751" 
d="M566 1449v-299l-9 -157q-4 -37 -32 -37t-35 37l-9 157v299h85zM269 1449v-299l-9 -157q-4 -37 -33 -37t-33 37l-10 157v299h85z" />
    <glyph glyph-name="numbersign" unicode="#" 
d="M398 525h305l84 399h-305zM88 484v7q0 7 5 34h223l84 399h-259l6 39q4 34 46 33h218l89 414q8 39 47 39h43l-97 -453h305l97 453h43q32 0 32 -31q0 -8 -1 -12l-89 -410h230l-6 -39q-5 -34 -46 -33h-189l-84 -399h231q31 0 31 -26l-5 -45h-267l-96 -454h-42q-33 0 -33 34
q0 7 1 11l88 409h-305l-88 -413q-9 -41 -47 -41h-43l96 454h-187q-31 0 -31 30z" />
    <glyph glyph-name="dollar" unicode="$" 
d="M386.5 921.5q72.5 -59.5 209.5 -107.5l29 565q-148 -8 -229.5 -88.5t-81.5 -194.5q0 -115 72.5 -174.5zM887 590.5q-80 61.5 -231 107.5l-31 -631q161 10 251.5 104.5t90.5 226.5q0 131 -80 192.5zM208 228q13 0 27 -11t51.5 -43.5t105 -67t167.5 -39.5l33 651
q-179 56 -242 107t-95 111.5t-32 142.5q0 160 108.5 268.5t297.5 114.5l9 172q2 33 31 33h37l-12 -206q187 -13 324 -148l-23 -35q-10 -17 -24 -17t-80.5 53.5t-200.5 63.5l-30 -585q192 -60 295.5 -132t103.5 -245t-116.5 -297t-321.5 -134l-12 -216q-2 -32 -29 -32h-37
l12 248q-241 11 -399 188l27 40q12 15 25 15z" />
    <glyph glyph-name="percent" unicode="%" horiz-adv-x="1570" 
d="M1403 344q0 79 -18 136t-48.5 93t-72 53t-88 17t-87.5 -17t-72 -53t-49 -93t-18 -136t18 -134.5t49 -91.5t72 -52.5t87.5 -16.5t88 16.5t72 52.5t48.5 91.5t18 134.5zM1394 77.5q-87 -94.5 -220 -94.5q-132 0 -217 94.5t-85 266.5t85 268.5t219 96.5t219.5 -95t85.5 -268
q0 -174 -87 -268.5zM1286 1449h69l-1041 -1431q-13 -18 -35 -18h-70l1039 1431q14 18 38 18zM621 1101q0 79 -18 135t-49.5 92.5t-73 53.5t-87.5 17t-87 -17t-71.5 -53.5t-48.5 -92.5t-18 -135t18 -135t48.5 -91.5t71.5 -52.5t87 -17t87.5 17t73 52.5t49.5 91.5t18 135z
M610.5 834q-87.5 -95 -219.5 -95t-217 94.5t-85 268.5t85 268.5t218 94.5t219.5 -95t86.5 -268t-87.5 -268z" />
    <glyph glyph-name="ampersand" unicode="&#x26;" horiz-adv-x="1416" 
d="M208 368q0 -138 102.5 -221.5t229.5 -83.5q268 0 443 220l-470 461q-6 5 -11 12q-211 -90 -252.5 -204t-41.5 -184zM455 806q-146 164 -146 317t102 247.5t252 94.5t248.5 -87t102.5 -202q-56 -12 -64 -12q-18 0 -24 26q-19 71 -81.5 135t-176.5 64q-115 0 -191 -72.5
t-76 -170.5t43 -175t134 -165l456 -451q92 148 109 309q4 28 26 28h57q-4 -201 -134 -393l305 -299h-91q-33 0 -58 23l-210 205q-212 -244 -513 -244q-165 0 -290.5 105t-125.5 282q0 144 96.5 260.5t249.5 174.5z" />
    <glyph glyph-name="quotesingle" unicode="'" horiz-adv-x="453" 
d="M269 1449v-299l-9 -157q-4 -37 -33 -37t-33 37l-10 157v299h85z" />
    <glyph glyph-name="parenleft" unicode="(" horiz-adv-x="614" 
d="M505 1493q-246 -397 -246 -849t247 -845q7 -11 7 -23t-14 -21l-43 -26q-221 338 -251.5 567t-30.5 410.5t63.5 400.5t218.5 456l43 -27q13 -8 13 -20t-7 -23z" />
    <glyph glyph-name="parenright" unicode=")" horiz-adv-x="614" 
d="M108 -201q246 392 246 844t-245 850q-18 29 6 43l43 27q223 -346 252 -572t29 -409.5t-64 -400t-217 -452.5l-43 26q-29 14 -7 44z" />
    <glyph glyph-name="asterisk" unicode="*" horiz-adv-x="819" 
d="M434 1138v-219h-53v218q0 33 13 61q-16 -22 -48 -41l-192 -111l-26 45l193 112q26 15 59 20q-31 5 -59 21l-195 113l27 46l193 -113q26 -16 50 -47q-15 36 -15 67v219h53v-218q0 -36 -13 -67q22 31 49 46l193 112l26 -46l-192 -112q-29 -18 -60 -21q30 -5 60 -20
l193 -112l-25 -47l-195 113q-30 18 -49 43q13 -39 13 -62z" />
    <glyph glyph-name="plus" unicode="+" 
d="M632 1186v-462h441v-75h-441v-464h-80v464h-440v75h440v462h80z" />
    <glyph glyph-name="comma" unicode="," horiz-adv-x="404" 
d="M189 -4q-28 0 -52 25.5t-24 63.5t24.5 63.5t66.5 25.5t66 -30t24 -76q0 -89 -42.5 -175t-112.5 -152l-15 15q-8 8 -8 18t10 19q31 31 63.5 87t39.5 120q-12 -4 -40 -4z" />
    <glyph glyph-name="hyphen" unicode="-" horiz-adv-x="680" 
d="M102 649h477v-83h-477v83z" />
    <glyph glyph-name="period" unicode="." horiz-adv-x="404" 
d="M134.5 146q26.5 28 56.5 28q50 0 78 -28t28 -58q0 -48 -27.5 -75.5t-67.5 -27.5t-67 27t-27 67q0 39 26.5 67z" />
    <glyph glyph-name="slash" unicode="/" horiz-adv-x="730" 
d="M35 -86h-40l637 1538q15 38 55 38h42l-636 -1536q-16 -40 -58 -40z" />
    <glyph glyph-name="zero" unicode="0" 
d="M1011 724q0 176 -34 301.5t-91 205t-133 116t-210 36.5t-251 -163.5t-117 -494.5t117 -494t352.5 -163t301 240t65.5 416zM1113 725q0 -190 -41 -329.5t-111.5 -230.5t-165.5 -135.5t-202.5 -44.5t-201.5 44.5t-164.5 135.5t-111 230.5t-40.5 329.5t40.5 329.5t111 230.5
t164.5 135.5t201.5 44.5t202.5 -44.5t165.5 -135.5t111.5 -230.5t41 -329.5z" />
    <glyph glyph-name="one" unicode="1" 
d="M316 76h333v1175q0 35 3 74l-319 -284q-10 -9 -26 -9t-25 12l-30 41l419 370h75v-1379h317v-76h-747v76z" />
    <glyph glyph-name="two" unicode="2" 
d="M168 1074q24 183 145.5 287t300.5 104t298.5 -101t119.5 -297q0 -197 -125 -331t-187 -197l-454 -463q66 16 140 16h625q36 0 36 -35v-57h-935v35q0 25 20 43l494 501q147 149 217 257.5t70 248.5t-92 218.5t-228 78.5t-228 -76.5t-117 -204.5q-10 -36 -41 -36l-10 1z
" />
    <glyph glyph-name="three" unicode="3" 
d="M974 396q0 313 -419 313v70q185 4 284 86.5t99 223.5t-88.5 217t-224.5 76t-226.5 -75t-119.5 -206q-8 -36 -38 -36q-7 0 -12 1l-50 8q26 185 146.5 288t298.5 103t294 -95.5t116 -269.5q0 -204 -112.5 -266.5t-173.5 -77.5q160 -30 241.5 -123.5t81.5 -234.5
q0 -177 -133.5 -295.5t-332.5 -118.5q-318 0 -386 152.5t-87 217.5l39 17q12 5 32 5t28 -25l8 -20q88 -264 349 -264q187 0 286.5 101.5t99.5 227.5z" />
    <glyph glyph-name="four" unicode="4" 
d="M792 1252q0 44 5 77l-626 -835h621v758zM1145 440q0 -24 -28 -24h-237v-416h-88v416h-683q-28 0 -35 24l-9 48l728 963h87v-957h265v-54z" />
    <glyph glyph-name="five" unicode="5" 
d="M535 826q-112 0 -247 -39l-64 20l114 642h651v-42q0 -20 -13.5 -34t-43.5 -14h-524l-87 -483q130 32 245 32q223 0 342.5 -119.5t119.5 -327.5t-144 -342.5t-360 -134.5q-217 0 -372 129l28 40q10 15 26 15t95.5 -49t196.5 -49q206 0 318.5 107t112.5 295
q0 251 -141 302.5t-253 51.5z" />
    <glyph glyph-name="six" unicode="6" 
d="M331 169.5q97 -104.5 266 -104.5t273.5 101.5t104.5 266.5q0 164 -100.5 261t-264.5 97t-270 -107.5t-106 -258.5t97 -255.5zM318 733q129 133 321 133q193 0 313 -118t120 -312.5t-132.5 -323t-341.5 -128.5t-334 128t-125 349q0 183 185 432l395 532q17 24 52 24h86
l-432 -564q-71 -94 -107 -152z" />
    <glyph glyph-name="seven" unicode="7" 
d="M1097 1449v-44q0 -32 -13 -52l-664 -1316q-18 -37 -59 -37h-66l669 1311q13 27 31 48h-835q-11 0 -19 8t-8 19v63h964z" />
    <glyph glyph-name="eight" unicode="8" 
d="M594 793q158 0 240 87t82 215t-85.5 211.5t-236.5 83.5t-237.5 -83t-86.5 -211t83 -215.5t241 -87.5zM862 150.5q103 89.5 103 248.5t-112.5 237t-306 78t-258.5 -117.5t-65 -201.5t26.5 -143t102.5 -125t241.5 -66t268.5 89.5zM252 93q-129 109 -129 290
q0 229 123 293.5t192 80.5q-190 54 -226.5 165.5t-36.5 181.5q0 151 114.5 256t304.5 105q189 0 304 -105.5t115 -263.5q0 -190 -100.5 -255.5t-163.5 -83.5q223 -48 269.5 -171t46.5 -209t-35 -160t-130 -153.5t-307 -79.5t-341 109z" />
    <glyph glyph-name="nine" unicode="9" 
d="M883 1285.5q-97 98.5 -253 98.5q-155 0 -256 -97.5t-101 -253.5q0 -155 93 -248t253 -93t260.5 102.5t100.5 247.5t-97 243.5zM911 754q-123 -138 -314 -138t-306 114t-115 300t130.5 310.5t327.5 124.5t318.5 -125.5t121.5 -328.5q0 -108 -42.5 -202t-134.5 -228
l-380 -557q-15 -24 -50 -24h-88l428 598q68 94 104 156z" />
    <glyph glyph-name="colon" unicode=":" horiz-adv-x="486" 
d="M175 961.5q27 28.5 57 28.5q50 0 78 -28t28 -58q0 -48 -27.5 -75.5t-67.5 -27.5t-67.5 27t-27.5 66t27 67.5zM175 145.5q27 28.5 57 28.5q50 0 78 -28t28 -58q0 -48 -27.5 -75.5t-67.5 -27.5t-67.5 27t-27.5 66t27 67.5z" />
    <glyph glyph-name="semicolon" unicode=";" horiz-adv-x="486" 
d="M230 -4q-28 0 -52 25.5t-24 63.5t24.5 63.5t66.5 25.5t66 -30t24 -76q0 -89 -42.5 -175t-112.5 -152l-15 15q-8 8 -8 18t10 19q31 31 63.5 87t39.5 120q-12 -4 -40 -4zM175 961.5q27 28.5 57 28.5q50 0 78 -28t28 -58q0 -48 -27.5 -75.5t-67.5 -27.5t-67.5 27t-27.5 66
t27 67.5z" />
    <glyph glyph-name="less" unicode="&#x3c;" 
d="M932 1036q0 -20 -28 -36l-566 -286q-34 -17 -74 -27q43 -9 74 -25l566 -288q28 -15 28 -36v-67l-768 396v42l768 394v-67z" />
    <glyph glyph-name="equal" unicode="=" 
d="M170 890h847v-76h-847v76zM170 569h847v-75h-847v75z" />
    <glyph glyph-name="greater" unicode="&#x3e;" 
d="M257 338q0 23 27 36l567 288q32 16 73 25q-33 8 -73 27l-567 286q-27 14 -27 36v67l768 -394v-42l-768 -396v67z" />
    <glyph glyph-name="question" unicode="?" horiz-adv-x="758" 
d="M268.5 146.5q27.5 27.5 56.5 27.5q49 0 77 -28t28 -58q0 -48 -27.5 -75.5t-67.5 -27.5t-67 27t-27 67t27.5 67.5zM370 1465q146 0 248 -85t102 -225q0 -183 -104 -261.5t-167 -125.5t-66 -101l-12 -168h-67l-5 175v5q0 42 24.5 73.5t61 61.5t140 104.5t103.5 232.5
q0 107 -77.5 170.5t-188.5 63.5q-148 0 -210.5 -57.5t-73.5 -57.5t-19 12l-25 41q142 142 336 142z" />
    <glyph glyph-name="at" unicode="@" horiz-adv-x="1682" 
d="M971 880q-75 0 -150.5 -37.5t-157 -131.5t-81.5 -240t60.5 -176.5t99.5 -30.5q89 0 162.5 64t113.5 220l82 317q-54 15 -129 15zM1473 -86q-239 -158 -573 -158t-561.5 216.5t-227.5 589.5q0 171 60 317.5t164.5 254t244 168.5t287.5 61q303 0 506 -178t203 -491
q0 -221 -110.5 -361t-270.5 -140q-179 0 -183 184q-108 -180 -286 -180q-109 0 -166.5 71t-57.5 173q0 204 137 354t362 150q112 0 188 -36l-93 -355q-24 -94 -24 -146q0 -88 37 -119.5t97 -31.5q123 0 210 121t87 294q0 313 -176.5 468t-448.5 155q-140 0 -266 -54
t-220.5 -151.5t-150.5 -232t-56 -305.5t58 -309t208.5 -278t454.5 -140q303 0 513 136q7 5 19 5t19 -14z" />
    <glyph glyph-name="A" unicode="A" horiz-adv-x="1319" 
d="M336 526h649l-296 732q-7 17 -14 39.5t-15 47.5q-14 -50 -28 -88zM1225 0q-27 0 -38 28l-171 421h-712l-170 -421q-10 -28 -39 -28h-80l593 1449h105l593 -1449h-81z" />
    <glyph glyph-name="B" unicode="B" horiz-adv-x="1312" 
d="M1011 1069q0 297 -379 297h-313v-595h315q188 0 282.5 87.5t94.5 210.5zM319 694v-610h364q191 0 288.5 82.5t97.5 226.5t-101.5 222.5t-283.5 78.5h-365zM215 0v1449h417q363 0 422.5 -141t59.5 -213q0 -132 -78.5 -225t-217.5 -128q171 -26 263.5 -113.5t92.5 -232.5
q0 -185 -128.5 -290.5t-360.5 -105.5h-470z" />
    <glyph glyph-name="C" unicode="C" horiz-adv-x="1440" 
d="M1326 193q-196 -209 -509 -209t-501.5 203.5t-188.5 535.5t197 537t513 205q220 0 322 -66.5t150 -109.5l-32 -46q-7 -12 -21 -12t-28.5 10.5t-57.5 42t-124 61.5t-211 30q-266 0 -433.5 -178t-167.5 -474q0 -297 163.5 -473t416.5 -176q255 0 414 142q31 28 40 28
q10 0 17 -7z" />
    <glyph glyph-name="D" unicode="D" horiz-adv-x="1556" 
d="M1326 724q0 299 -158 469.5t-425 170.5h-422v-1279h422q267 0 425 170t158 469zM1435 724q0 -331 -189.5 -527.5t-502.5 -196.5h-528v1449h528q313 0 502.5 -197t189.5 -528z" />
    <glyph glyph-name="E" unicode="E" horiz-adv-x="1210" 
d="M1083 1449v-87h-762v-586h634v-85h-634v-604h762v-87h-868v1449h868z" />
    <glyph glyph-name="F" unicode="F" horiz-adv-x="1171" 
d="M1083 1449v-87h-762v-609h660v-87h-660v-666h-106v1449h868z" />
    <glyph glyph-name="G" unicode="G" horiz-adv-x="1532" 
d="M1080 97q96 28 204 89v391h-278q-11 0 -19 7t-8 16v57h400v-515q-113 -80 -243.5 -119t-296.5 -39t-295 52.5t-222 149.5t-144 234t-51 389t196.5 454t530.5 202q237 0 343 -65.5t154 -107.5l-28 -45q-9 -15 -22 -15t-25 5t-41 27.5t-118 66.5t-248 44q-301 0 -468 -175
t-167 -476t123.5 -433t235 -177t251.5 -45t236 28z" />
    <glyph glyph-name="H" unicode="H" horiz-adv-x="1548" 
d="M1333 0h-105v694h-907v-694h-106v1449h106v-676h907v676h105v-1449z" />
    <glyph glyph-name="I" unicode="I" horiz-adv-x="612" 
d="M358 0h-105v1449h105v-1449z" />
    <glyph glyph-name="J" unicode="J" horiz-adv-x="929" 
d="M715 483q0 -238 -114 -368.5t-319 -130.5q-94 0 -191 29q4 27 6 47t7.5 27t17.5 7t25 -3.5t46.5 -11t95.5 -7.5q144 0 232 101.5t88 307.5v968h106v-966z" />
    <glyph glyph-name="K" unicode="K" horiz-adv-x="1351" 
d="M350 780h86q53 0 72.5 13.5t31.5 24.5l584 601q30 30 65 30h85l-633 -650q-36 -38 -68 -50q39 -11 73 -53l668 -696h-85q-27 0 -38 7.5t-24 20.5l-613 626q-37 37 -61.5 40.5t-49.5 3.5h-93v-698h-104v1451h104v-671z" />
    <glyph glyph-name="L" unicode="L" horiz-adv-x="1047" 
d="M319 89h688v-89h-792v1449h104v-1360z" />
    <glyph glyph-name="M" unicode="M" horiz-adv-x="1861" 
d="M1574 1449h73v-1449h-93v1235q0 27 4 56l-571 -1012q-14 -27 -41 -27h-16q-26 0 -41 27l-586 1013q3 -30 3 -57v-1235h-91v1449h72q27 0 40 -19l584 -1008q15 -29 27 -62q17 47 28 63l569 1007q12 19 39 19z" />
    <glyph glyph-name="N" unicode="N" horiz-adv-x="1548" 
d="M266 1449q26 0 40 -19l938 -1256q-3 31 -3 59v1216h92v-1449h-50q-24 0 -38 20l-942 1258q3 -31 3 -58v-1220h-91v1449h51z" />
    <glyph glyph-name="O" unicode="O" horiz-adv-x="1633" 
d="M1240 1200.5q-159 174.5 -422 174.5t-424 -174.5t-161 -475.5t160.5 -475t424.5 -174t422.5 174t158.5 475t-159 475.5zM1316.5 188q-190.5 -203 -498.5 -203q-309 0 -500.5 202.5t-191.5 536.5q0 333 192 537t500 204q309 0 499 -203.5t190 -537.5q0 -333 -190.5 -536z
" />
    <glyph glyph-name="P" unicode="P" horiz-adv-x="1215" 
d="M350 668h270q187 0 298 98.5t111 258.5q0 161 -103 251t-306 90h-270v-698zM350 584v-584h-104v1449h374q255 0 384.5 -111.5t129.5 -311.5t-138.5 -321t-375.5 -121h-270z" />
    <glyph glyph-name="Q" unicode="Q" horiz-adv-x="1633" 
d="M1240 1200.5q-159 174.5 -422 174.5t-424 -174.5t-161 -475.5t160.5 -475t424.5 -174t422.5 174t158.5 475t-159 475.5zM126 724q0 333 192 537t500 204q309 0 499 -203.5t190 -533.5t-121.5 -464t-195.5 -180l377 -403h-88q-45 0 -66 25l-309 334q-132 -55 -287 -55
q-308 0 -499.5 203t-191.5 536z" />
    <glyph glyph-name="R" unicode="R" horiz-adv-x="1292" 
d="M1012 1062q0 304 -397 304h-265v-633h252q193 0 301.5 89t108.5 240zM615 1449q499 0 499 -381q0 -165 -112 -272.5t-300 -127.5q25 -15 44 -41l499 -627h-91q-31 0 -51 27l-464 587q-17 23 -37 32t-62 9h-190v-655h-104v1449h369z" />
    <glyph glyph-name="S" unicode="S" horiz-adv-x="1070" 
d="M254 1097q0 -180 147.5 -232t269 -92t216 -115t94.5 -250t-124.5 -299.5t-339.5 -124.5q-260 0 -428 189l29 45q12 15 24 15t27 -12t93 -81t244 -69q179 0 278 94.5t99 236.5t-82.5 195t-147.5 75.5t-185 60t-216 114t-96 237.5t112 271t320 110q207 0 352 -145l-25 -47
q-19 -36 -97 34.5t-236 70.5t-243 -81.5t-85 -199.5z" />
    <glyph glyph-name="T" unicode="T" horiz-adv-x="1197" 
d="M1161 1449v-89h-509v-1360h-104v1360h-512v89h1125z" />
    <glyph glyph-name="U" unicode="U" horiz-adv-x="1502" 
d="M1195 553v896h104v-896q0 -247 -150 -408.5t-399 -161.5t-398.5 162t-149.5 408v896h105v-895q0 -206 118.5 -342.5t324.5 -136.5t325.5 134t119.5 344z" />
    <glyph glyph-name="V" unicode="V" horiz-adv-x="1319" 
d="M98 1449q27 0 38 -28l494 -1202q19 -47 32 -100q11 55 29 100l493 1202q13 28 39 28h82l-598 -1449h-94l-598 1449h83z" />
    <glyph glyph-name="W" unicode="W" horiz-adv-x="2021" 
d="M104 1449q30 0 38 -28l366 -1191q6 -20 10.5 -43.5t9.5 -49.5q12 61 23 93l410 1191q10 28 38 28h29q27 0 38 -28l410 -1191q12 -35 23 -91q5 25 9 48t11 43l365 1191q8 28 39 28h80l-456 -1449h-94l-428 1257q-8 25 -14 53q-6 -28 -15 -53l-429 -1257h-93l-457 1449h87z
" />
    <glyph glyph-name="X" unicode="X" horiz-adv-x="1227" 
d="M144 1449q21 0 33 -21l440 -634q5 14 16 31l425 602q16 22 31 22h100l-501 -700l521 -749h-103q-22 0 -36 26l-457 667q-4 -15 -14 -29l-448 -638q-20 -26 -38 -26h-96l524 743l-500 706h103z" />
    <glyph glyph-name="Y" unicode="Y" horiz-adv-x="1227" 
d="M667 0h-106v598l-535 851h91q22 0 40 -26l414 -665q27 -47 43 -90q14 40 43 90l414 665q14 26 39 26h92l-535 -851v-598z" />
    <glyph glyph-name="Z" unicode="Z" horiz-adv-x="1296" 
d="M1191 1449v-36q0 -22 -14 -42l-920 -1284h926v-87h-1065v38q0 19 12 37l922 1287h-908v87h1047z" />
    <glyph glyph-name="bracketleft" unicode="[" horiz-adv-x="614" 
d="M473 -204q32 0 32 -29v-37h-326v1823h326v-36q0 -13 -9 -21.5t-23 -8.5h-211v-1691h211z" />
    <glyph glyph-name="backslash" unicode="\" horiz-adv-x="732" 
d="M34 1490q40 0 55 -38l637 -1538h-40q-43 0 -58 40l-636 1536h42z" />
    <glyph glyph-name="bracketright" unicode="]" horiz-adv-x="614" 
d="M140 1487q-30 0 -30 30v36h324v-1823h-324v37q0 29 30 29h211v1691h-211z" />
    <glyph glyph-name="asciicircum" unicode="^" 
d="M898 819q-22 0 -34 24l-247 446q-20 38 -28 65q-9 -30 -28 -65l-246 -446q-15 -24 -34 -24h-73l349 630h61l350 -630h-70z" />
    <glyph glyph-name="underscore" unicode="_" horiz-adv-x="806" 
d="M807 -210v-70h-807v70h807z" />
    <glyph glyph-name="grave" unicode="`" horiz-adv-x="599" 
d="M182 1465q40 0 61 -32l160 -244h-55q-24 0 -38 17l-222 259h94z" />
    <glyph glyph-name="a" unicode="a" horiz-adv-x="996" 
d="M204 251q0 -96 57.5 -146.5t131.5 -50.5q124 0 204 43.5t163 128.5v266q-556 -15 -556 -241zM528 1036q242 0 284.5 -143.5t42.5 -228.5v-664h-39q-31 0 -38 29l-14 130q-93 -91 -177 -133t-205 -42q-182 0 -227 96t-45 164q0 139 158.5 222t491.5 91v107q0 141 -61 217
t-196 76t-207 -65.5t-90 -65.5t-28 19l-17 29q162 162 367 162z" />
    <glyph glyph-name="b" unicode="b" horiz-adv-x="1118" 
d="M929 516q0 441 -325 441q-192 0 -330 -197v-538q58 -88 129 -123.5t162 -35.5q177 0 270.5 123.5t93.5 329.5zM236 0h-60v1490h98v-649q147 194 346 194t304 -129.5t105 -375.5t-119 -394.5t-323 -148.5t-318 164l-6 -125q-3 -26 -27 -26z" />
    <glyph glyph-name="c" unicode="c" horiz-adv-x="931" 
d="M877 131q-111 -144 -369 -144q-78 0 -158 35t-170 140t-90 344t122 384t324 145t326 -117l-25 -35q-13 -13 -23 -13t-66.5 44t-168.5 44q-111 0 -179 -31t-139.5 -121t-71.5 -298t95.5 -326.5t254.5 -118.5t219 55.5t72 55.5t20 -10z" />
    <glyph glyph-name="d" unicode="d" horiz-adv-x="1118" 
d="M189 507q0 -441 325 -441q192 0 330 197v538q-59 87 -130.5 122.5t-204.5 35.5t-226.5 -123.5t-93.5 -328.5zM844 1490h98v-1490h-54q-26 0 -30 27l-10 160q-148 -200 -362 -200q-187 0 -292 130t-105 376t119 394.5t320 148.5t316 -150v604z" />
    <glyph glyph-name="e" unicode="e" horiz-adv-x="1046" 
d="M862 612q0 163 -86 257t-230 94q-150 0 -243 -94t-113 -257h672zM950 589q0 -39 -27 -39h-737v-20q0 -223 100.5 -344t271.5 -121t243.5 54.5t84.5 54.5t19 -10l27 -33q-79 -98 -199.5 -121t-200.5 -23t-166 36t-181 144t-95 347t123 380t337 141q176 0 288 -118
t112 -328z" />
    <glyph glyph-name="f" unicode="f" horiz-adv-x="659" 
d="M299 1113v-126h331v-73h-329v-914h-97v912l-144 10q-30 2 -29 25v40h173v129q0 171 84 261t228 90q68 0 121 -21l-3 -47q-1 -14 -20 -15l-85 7q-230 0 -230 -278z" />
    <glyph glyph-name="g" unicode="g" horiz-adv-x="1033" 
d="M502 451q66 0 117 18.5t85.5 52.5t52.5 81t18 104.5t-18.5 105t-53.5 81.5t-86 52.5t-115.5 18.5t-115.5 -18.5t-86.5 -52.5t-54 -81.5t-18.5 -105t18.5 -104.5t54 -81t86 -52.5t116.5 -18.5zM164 -96q0 -93 93.5 -152t252.5 -59t264.5 67t105.5 171q0 124 -122.5 138.5
t-242.5 20.5t-172 15q-179 -69 -179 -201zM342 411q-92 -53 -92 -131q0 -99 209.5 -108.5t360 -31.5t150.5 -195q0 -133 -128 -229t-332 -96t-318.5 78t-114.5 194q0 81 53 139.5t146 90.5q-111 37 -111 141q0 71 47.5 113.5t78.5 58.5q-154 89 -154 275q0 146 100 236
t249 90q148 0 241 -62h261v-34q0 -26 -29 -28l-154 -11q59 -79 59 -172q0 -165 -100.5 -255t-261.5 -90q-88 0 -160 27z" />
    <glyph glyph-name="h" unicode="h" horiz-adv-x="1107" 
d="M603 957q-194 0 -340 -193v-764h-97v1490h97v-645q155 190 365 190q250 0 294.5 -147.5t44.5 -236.5v-651h-98v651q0 143 -65.5 224.5t-200.5 81.5z" />
    <glyph glyph-name="i" unicode="i" horiz-adv-x="486" 
d="M335 1370.5q0 -18.5 -8 -34.5t-20 -28.5t-28.5 -19.5t-35 -7t-34.5 7t-28.5 19.5t-19.5 28.5t-7 34.5t7 35t19.5 29t28.5 19.5t34.5 7t35 -7t28.5 -19.5t20 -29t8 -35zM292 1019v-1019h-97v1019h97z" />
    <glyph glyph-name="j" unicode="j" horiz-adv-x="482" 
d="M335 1370.5q0 -18.5 -8 -34.5t-20 -28.5t-28.5 -19.5t-35 -7t-34.5 7t-28.5 19.5t-19.5 28.5t-7 34.5t7 35t19.5 29t28.5 19.5t34.5 7t35 -7t28.5 -19.5t20 -29t8 -35zM195 -130v1149h97v-1149q0 -108 -62.5 -178t-181.5 -70q-59 0 -99 22l5 49q1 12 14 12l64 -8
q163 0 163 173z" />
    <glyph glyph-name="k" unicode="k" horiz-adv-x="1007" 
d="M274 1490v-908h48q30 0 55 23l408 388q26 26 54 26h86l-450 -427q-27 -27 -40 -34q19 -10 51 -44l472 -514h-85q-26 0 -48 24l-428 458q-17 18 -31.5 25t-44.5 7h-47v-514h-98v1490h98z" />
    <glyph glyph-name="l" unicode="l" horiz-adv-x="486" 
d="M292 1490v-1490h-97v1490h97z" />
    <glyph glyph-name="m" unicode="m" horiz-adv-x="1629" 
d="M543 957q-163 0 -280 -187v-770h-97v1019h53q27 0 31 -26l9 -147q135 189 309 189q112 0 178.5 -65t90.5 -180q34 119 123 182t183 63q172 0 259 -100t87 -284v-651h-98v651q0 150 -64.5 228t-181.5 78t-195 -80t-78 -226v-651h-97v651q0 148 -59.5 227t-172.5 79z" />
    <glyph glyph-name="n" unicode="n" horiz-adv-x="1107" 
d="M603 957q-194 0 -340 -193v-764h-97v1019h53q27 0 31 -26l9 -153q155 195 369 195q250 0 294.5 -147.5t44.5 -236.5v-651h-98v651q0 143 -65.5 224.5t-200.5 81.5z" />
    <glyph glyph-name="o" unicode="o" horiz-adv-x="1107" 
d="M554 63q178 0 271 119.5t93 327.5t-93 328t-315.5 120t-271.5 -173t-49 -275t23.5 -184.5t93.5 -172.5t248 -90zM554 1035q110 0 196.5 -37t145.5 -106t90.5 -165.5t31.5 -216.5t-31.5 -216t-90.5 -165t-145.5 -105.5t-196.5 -36.5t-196.5 36.5t-146 105.5t-91 165
t-31.5 216t31.5 216.5t91 165.5t146 106t196.5 37z" />
    <glyph glyph-name="p" unicode="p" horiz-adv-x="1095" 
d="M918 516q0 441 -325 441q-195 0 -330 -199v-535q58 -88 129.5 -124t161.5 -36q175 0 269.5 124t94.5 329zM263 -360h-97v1379h53q29 0 31 -26l9 -157q148 200 362 200q188 0 292.5 -130t104.5 -375t-118 -394.5t-322 -149.5q-205 0 -315 150v-497z" />
    <glyph glyph-name="q" unicode="q" horiz-adv-x="1118" 
d="M189 507q0 -441 325 -441q192 0 330 197v539q-103 157 -285 157t-276 -123.5t-94 -328.5zM888 1019h54v-1379h-98v541q-147 -194 -346 -194t-304 130t-105 376t119 394.5t324 148.5t317 -157l9 114q1 26 30 26z" />
    <glyph glyph-name="r" unicode="r" horiz-adv-x="813" 
d="M592 1036q89 0 159 -38l-14 -67q-3 -16 -20 -17q-6 0 -40.5 13.5t-103.5 13.5q-116 0 -190 -71.5t-120 -206.5v-663h-97v1019h51q32 0 34 -32l8 -215q104 264 333 264z" />
    <glyph glyph-name="s" unicode="s" horiz-adv-x="880" 
d="M707 879q-13 0 -74.5 41.5t-147.5 41.5q-140 0 -209.5 -57.5t-69.5 -137.5q0 -116 115 -152.5t209 -65.5t168.5 -85t74.5 -179t-96 -212t-272 -89t-314 124l24 34q11 17 26 17t78 -52t165 -52q101 0 150 18t98.5 65t49.5 144q0 123 -115 160.5t-210 66.5t-169 83.5
t-74 167.5t93 194t257 81q165 0 285 -108l-22 -34q-7 -14 -20 -14z" />
    <glyph glyph-name="t" unicode="t" horiz-adv-x="730" 
d="M668 79q-86 -95 -243 -95q-84 0 -142 57t-58 177v696h-146q-26 0 -26 24v38l174 12l25 365q3 23 26 23h46v-389h320v-73h-320v-691q0 -119 55 -139.5t89 -20.5t60 11t45.5 24t31.5 23.5t20 10.5t16 -10z" />
    <glyph glyph-name="u" unicode="u" horiz-adv-x="1107" 
d="M140 368v651h99v-651q0 -143 65.5 -225t199.5 -82q193 0 340 192v766h98v-1019h-54q-29 0 -30 27l-9 151q-157 -194 -370 -194q-250 0 -294.5 147.5t-44.5 236.5z" />
    <glyph glyph-name="v" unicode="v" horiz-adv-x="997" 
d="M102 1019q26 0 36 -25l336 -804q13 -32 26 -88q14 60 25 88l338 804q11 25 35 25h74l-430 -1019h-86l-430 1019h76z" />
    <glyph glyph-name="w" unicode="w" horiz-adv-x="1509" 
d="M97 1019q28 0 36 -25l257 -804q11 -36 20 -88q11 47 25 88l274 811q7 23 28 23h40q23 0 30 -23l269 -811q15 -46 25 -89q11 60 21 89l258 804q8 25 35 25h72l-341 -1019h-72q-16 0 -23 22l-280 827q-10 28 -16 61q-6 -32 -16 -61l-282 -827q-6 -22 -25 -22h-68l-341 1019
h74z" />
    <glyph glyph-name="x" unicode="x" horiz-adv-x="943" 
d="M143 1019q21 0 33 -21l299 -432q4 17 18 37l279 394q12 22 31 22h90l-356 -493l370 -526h-93q-22 0 -36 26l-309 450q-5 -20 -15 -35l-297 -417q-19 -24 -34 -24h-87l368 521l-354 498h93z" />
    <glyph glyph-name="y" unicode="y" horiz-adv-x="997" 
d="M103 1019q27 0 37 -25l343 -792q12 -30 20 -64q10 32 22 64l339 792q11 25 35 25h75l-586 -1347q-14 -32 -44 -32h-70l180 398l-431 981h80z" />
    <glyph glyph-name="z" unicode="z" horiz-adv-x="925" 
d="M846 978q0 -22 -15 -39l-637 -862h626v-77h-744v39q0 17 15 38l640 865h-621v77h736v-41z" />
    <glyph glyph-name="braceleft" unicode="{" horiz-adv-x="614" 
d="M181 567q-43 43 -116 43v63q112 0 135.5 60.5t23.5 104.5q0 63 -30.5 205t-30.5 212q0 135 76.5 216.5t211.5 81.5h56v-43q0 -11 -9 -17t-17 -6h-34q-136 0 -167 -85t-31 -139q0 -80 29.5 -219t29.5 -196q0 -93 -44 -142.5t-107 -64.5q62 -12 106.5 -63.5t44.5 -113.5
q0 -85 -29.5 -225t-29.5 -207q0 -115 55 -175.5t143 -60.5h34q8 0 17 -6t9 -17v-43h-56q-135 0 -211.5 82.5t-76.5 209.5q0 76 30.5 217.5t30.5 213.5q0 71 -43 114z" />
    <glyph glyph-name="bar" unicode="|" horiz-adv-x="614" 
d="M268 1553h77v-1913h-77v1913z" />
    <glyph glyph-name="braceright" unicode="}" horiz-adv-x="614" 
d="M133 1487q-25 0 -25 23v43h56q133 0 210.5 -81.5t77.5 -209.5q0 -68 -21 -170t-31 -155t-10 -99q0 -78 43.5 -121.5t115.5 -43.5v-63q-110 0 -134.5 -60t-24.5 -105q0 -55 31 -205.5t31 -215.5q0 -130 -77 -212t-211 -82h-56v43q0 23 25 23h34q137 0 168 85t31 139
q0 70 -30 218.5t-30 201.5q0 86 44.5 137.5t106.5 63.5q-62 14 -106.5 64t-44.5 113q0 78 30 225.5t30 210.5q0 112 -55 172.5t-144 60.5h-34z" />
    <glyph glyph-name="asciitilde" unicode="~" 
d="M965 765h79q0 -181 -92 -223t-146 -42t-109.5 20t-109 44.5t-103.5 44.5t-92 20q-77 0 -122.5 -51.5t-47.5 -133.5h-79q0 115 65 190.5t176 75.5q76 0 216 -64.5t188 -64.5q87 0 132 51.5t45 132.5z" />
    <glyph glyph-name="uni00A0" unicode="&#xa0;" horiz-adv-x="395" 
 />
    <glyph glyph-name="exclamdown" unicode="&#xa1;" horiz-adv-x="660" 
d="M236 941q0 40 27 67t57 27t47 -7t30 -20t20.5 -30t7.5 -37q0 -40 -27.5 -68t-67.5 -28t-67 28t-27 68zM381 203v-563h-95v563q0 98 14 364h67q14 -266 14 -364z" />
    <glyph glyph-name="cent" unicode="&#xa2;" 
d="M351.5 195q92.5 -116 254.5 -130l45 893q-187 -6 -289.5 -124.5t-102.5 -320.5t92.5 -318zM293.5 888q130.5 143 361.5 147l11 210q3 33 30 33h37l-12 -246q167 -15 281 -114l-24 -34q-12 -13 -22 -13t-63.5 37.5t-175.5 48.5l-44 -895q162 4 226 57t76 53t19 -9l25 -32
q-76 -95 -183.5 -118t-166.5 -25l-11 -215q-2 -32 -30 -32h-37l12 248q-199 12 -319.5 149.5t-120.5 371.5q0 235 130.5 378z" />
    <glyph glyph-name="sterling" unicode="&#xa3;" 
d="M274 313v334h-205v33q0 36 36 36h169v301q0 197 109.5 322t312.5 125q264 0 372 -240l-39 -23q-9 -5 -24 -5t-29 17q-50 81 -108 124t-155 43q-170 0 -254.5 -98t-84.5 -265v-301h490v-40q0 -11 -8.5 -20t-21.5 -9h-460v-311q0 -164 -138 -259q46 8 90 8h806v-41
q0 -15 -12.5 -29.5t-33.5 -14.5h-993v67q181 67 181 246z" />
    <glyph glyph-name="currency" unicode="&#xa4;" 
d="M316 687q0 -57 22 -107.5t59.5 -87.5t88.5 -59t108 -22t108 22t88.5 59t59.5 87.5t22 107.5t-22 108t-59.5 89t-88.5 60t-108 22t-108 -22t-88.5 -60t-59.5 -89t-22 -108zM243 687q0 124 78 221l-158 158l50 51l158 -158q99 80 222 80q122 0 222 -78l158 157l50 -51
l-157 -157q80 -99 80 -223q0 -123 -79 -221l158 -158l-51 -51l-158 158q-98 -79 -222 -79t-221 78l-159 -158l-50 51l158 157q-79 99 -79 223z" />
    <glyph glyph-name="yen" unicode="&#xa5;" 
d="M165 631h354l-432 818h81q27 0 40 -26l354 -681q21 -52 27 -73q9 34 26 73l354 681q12 26 39 26h82l-434 -818h356v-60h-375v-120h375v-60h-375v-391h-97v391h-375v60h375v120h-375v60z" />
    <glyph glyph-name="brokenbar" unicode="&#xa6;" horiz-adv-x="614" 
d="M268 435h77v-795h-77v795zM268 1553h77v-796h-77v796z" />
    <glyph glyph-name="section" unicode="&#xa7;" horiz-adv-x="1026" 
d="M229 744q0 -106 104 -159.5t199.5 -94.5t141.5 -67q136 61 136 188q0 126 -105.5 183.5t-185 90.5t-123.5 56q-167 -72 -167 -197zM341 974q-127 86 -127 207t92.5 202.5t256.5 81.5t286 -108l-22 -35q-7 -13 -20 -13t-72 41t-149 41q-145 0 -215 -58t-70 -140
q0 -114 175 -191t297.5 -142t122.5 -231t-170 -239q124 -88 124 -217t-96 -218t-274 -89q-177 0 -312 124l23 35q10 16 26 16t77 -51.5t182 -51.5q149 0 218.5 64t69.5 163q0 128 -126.5 183.5t-233 101.5t-184.5 109t-78 172q0 171 199 243z" />
    <glyph glyph-name="dieresis" unicode="&#xa8;" horiz-adv-x="599" 
d="M534 1258q-25 -25 -51 -25t-41 6.5t-27 18t-18.5 26t-6.5 31.5q0 36 26 60.5t50 24.5t40 -7t34.5 -25.5t18.5 -51.5t-25 -58zM208 1316q0 -16 -7 -31.5t-18.5 -27t-27.5 -18t-32.5 -6.5t-31 6.5t-26.5 18t-18.5 26t-6.5 31.5t6.5 32.5t18.5 27t26.5 18.5t31 7t32.5 -7
t27.5 -18.5t18.5 -27t7 -31.5z" />
    <glyph glyph-name="copyright" unicode="&#xa9;" horiz-adv-x="1651" 
d="M147 725q0 -142 53 -266.5t145 -217.5t215.5 -146t265 -53t265.5 53t216.5 146t145.5 217.5t53 266.5t-53 266.5t-145.5 218t-216.5 147t-265.5 53.5t-265 -53.5t-215.5 -147t-145 -218t-53 -266.5zM87 724q0 102 26.5 197t74.5 177t115.5 149.5t149.5 115.5t176 74.5
t196.5 26.5t196.5 -26.5t219.5 -99.5t224.5 -244t99 -369t-99 -369t-270 -270.5t-371 -99.5t-415 126t-269 318t-54 294zM1177 396q-132 -132 -337 -132t-329 128t-124 333t130.5 334t325.5 129t322 -115l-24 -34q-7 -11 -19 -11t-65.5 42.5t-170.5 42.5t-186.5 -27
t-146.5 -105t-77 -257t101 -282t261 -103t268 85q12 10 22 10t17 -6z" />
    <glyph glyph-name="ordfeminine" unicode="&#xaa;" horiz-adv-x="687" 
d="M179 1009q0 -52 33.5 -78.5t76.5 -26.5q71 0 117 23t100 72v142q-327 -10 -327 -132zM354 1464q118 0 171.5 -59.5t53.5 -160.5v-385h-33q-19 0 -27 20l-10 69q-106 -98 -226 -98t-147 58t-27 96q0 82 98 133t299 55v52q0 159 -145 159q-87 0 -130 -35.5t-56 -35.5
t-20 14l-13 23q94 95 212 95z" />
    <glyph glyph-name="guillemotleft" unicode="&#xab;" horiz-adv-x="894" 
d="M714 177q0 -14 -17 -24l-30 -16l-247 388v14l247 387l30 -16q28 -18 10 -49l-188 -300q-13 -20 -22 -30q10 -8 22 -28l188 -301q7 -11 7 -25zM159 525v14l247 387l30 -16q29 -18 9 -49l-187 -300q-13 -20 -22 -30q10 -8 22 -28l187 -301q20 -32 -9 -49l-30 -16z" />
    <glyph glyph-name="logicalnot" unicode="&#xac;" 
d="M168 724h849v-377h-84v302h-765v75z" />
    <glyph glyph-name="uni00AD" unicode="&#xad;" horiz-adv-x="680" 
d="M102 649h477v-83h-477v83z" />
    <glyph glyph-name="registered" unicode="&#xae;" horiz-adv-x="1651" 
d="M791 738q245 0 245 193q0 94 -55 137t-176 43h-166v-373h152zM805 1179q317 0 317 -239q0 -102 -66 -167.5t-186 -82.5q25 -15 41 -41l292 -377h-82q-21 0 -31 17l-277 359q-18 25 -61 25h-113v-401h-87v907h253zM147 725q0 -142 53 -266.5t145 -217.5t215.5 -146
t265 -53t265.5 53t216.5 146t145.5 217.5t53 266.5t-53 266.5t-145.5 218t-216.5 147t-265.5 53.5t-265 -53.5t-215.5 -147t-145 -218t-53 -266.5zM87 724q0 102 26.5 197t74.5 177t115.5 149.5t149.5 115.5t176 74.5t196.5 26.5t196.5 -26.5t219.5 -99.5t224.5 -244
t99 -369t-99 -369t-270 -270.5t-371 -99.5t-415 126t-269 318t-54 294z" />
    <glyph glyph-name="macron" unicode="&#xaf;" horiz-adv-x="599" 
d="M20 1349h559v-67h-559v67z" />
    <glyph glyph-name="degree" unicode="&#xb0;" horiz-adv-x="804" 
d="M166 1161q0 -49 18.5 -92t50 -74.5t74.5 -50t92.5 -18.5t92.5 18.5t74 50t49.5 74.5t18.5 92t-18.5 92t-49.5 75.5t-74 51t-92.5 18.5t-92.5 -18.5t-74.5 -51t-50 -75.5t-18.5 -92zM93 1161.5q0 63.5 24 119t65.5 97t98 65t121 23.5t121 -23.5t98 -65t65.5 -97t24 -119
t-24 -119t-65.5 -97t-98 -65.5t-121 -24t-121 24t-98 65.5t-65.5 97t-24 119z" />
    <glyph glyph-name="plusminus" unicode="&#xb1;" 
d="M112 157h961v-75h-961v75zM632 1181v-416h441v-75h-441v-411h-80v411h-440v75h440v416h80z" />
    <glyph glyph-name="twosuperior" unicode="&#xb2;" horiz-adv-x="677" 
d="M493 1459q0 142 -163 142q-46 0 -83 -36.5t-58 -93.5q-7 -19 -23 -19t-22 2l-30 5q14 98 77.5 150.5t157.5 52.5t156 -52.5t62 -153.5t-63 -166t-93 -96l-212 -215q38 10 80 10h281q25 0 25 -24v-43h-486v24q0 20 15 32l240 243q139 139 139 238z" />
    <glyph glyph-name="threesuperior" unicode="&#xb3;" horiz-adv-x="677" 
d="M512 1124q0 146 -199 146v50q93 2 139 40t46 88q0 81 -41 116t-105 35q-118 0 -156 -126q-6 -20 -25 -21q-7 0 -23 3l-25 4q14 98 77 150.5t156 52.5t152.5 -50.5t59.5 -135.5q0 -133 -135 -177q154 -35 154 -171q0 -96 -70.5 -155.5t-170.5 -59.5q-161 0 -197.5 76
t-48.5 113l31 13q8 4 22 4t20 -16q21 -56 57 -92t113 -36q118 0 143.5 62t25.5 87z" />
    <glyph glyph-name="acute" unicode="&#xb4;" horiz-adv-x="599" 
d="M270 1189h-58l161 244q20 32 60 32h96l-221 -259q-14 -17 -38 -17z" />
    <glyph glyph-name="mu" unicode="&#xb5;" horiz-adv-x="1107" 
d="M184 -360q-44 0 -44 43v1336h99v-651q0 -143 65.5 -225t199.5 -82q193 0 340 192v766h98v-1019h-54q-29 0 -30 27l-9 151q-147 -184 -346 -184t-278 152q8 -70 8 -171v-335h-49z" />
    <glyph glyph-name="paragraph" unicode="&#xb6;" horiz-adv-x="1294" 
d="M1249 1449v-84h-230v-1560h-87v1560h-336v-1560h-88v911q-208 0 -330.5 105.5t-122.5 268.5t121 261t332 98h741z" />
    <glyph glyph-name="periodcentered" unicode="&#xb7;" horiz-adv-x="544" 
d="M199.5 682q30.5 30 61.5 30q53 0 84 -31t31 -63q0 -53 -31 -83.5t-63 -30.5t-50.5 8t-40.5 30t-22 66t30.5 74z" />
    <glyph glyph-name="cedilla" unicode="&#xb8;" horiz-adv-x="599" 
d="M160 -280q8 0 16 -5.5t34 -17.5t75 -12q50 0 79 22.5t29 54.5q0 54 -45.5 74.5t-136.5 31.5l43 137h62l-30 -98q91 -16 138.5 -47t47.5 -91q0 -93 -73 -113t-115 -20q-87 0 -149 43l10 29q7 12 15 12z" />
    <glyph glyph-name="onesuperior" unicode="&#xb9;" horiz-adv-x="677" 
d="M191 972h162v553l4 38l-147 -129q-20 -15 -35 3l-22 31l216 189h59v-685h151v-50h-388v50z" />
    <glyph glyph-name="ordmasculine" unicode="&#xba;" horiz-adv-x="764" 
d="M382 906q108 0 162 66t54 182t-54 183t-162 67t-161.5 -67t-53.5 -183t53.5 -182t161.5 -66zM676 1155q0 -141 -78 -224.5t-215 -83.5q-136 0 -215 83t-79 225t79 225t215 83q137 0 215 -83.5t78 -224.5z" />
    <glyph glyph-name="guillemotright" unicode="&#xbb;" horiz-adv-x="894" 
d="M489 137l-30 16q-32 17 -10 49l187 301q10 18 22 28q-12 12 -22 30l-187 300q-21 33 10 49l30 16l247 -387v-14zM180 886q0 14 18 24l30 16l247 -387v-14l-247 -388l-30 16q-30 16 -11 49l188 301q10 18 22 28q-12 12 -22 30l-188 300q-7 11 -7 25z" />
    <glyph glyph-name="onequarter" unicode="&#xbc;" horiz-adv-x="1458" 
d="M1196 1449h43l-821 -1417q-20 -32 -57 -32h-40l819 1413q21 36 56 36zM1233 596q0 24 3 53l-296 -396h293v343zM176 768h162v553l4 38l-147 -129q-8 -6 -18 -6t-17 9l-23 32l216 188h60v-685h150v-50h-387v50zM1297 253h129v-37q0 -16 -17 -16h-112v-200h-64v200h-333
q-24 0 -26 16l-6 33l361 483h68v-479z" />
    <glyph glyph-name="onehalf" unicode="&#xbd;" horiz-adv-x="1458" 
d="M313 0h-41l820 1413q21 36 56 36h43l-821 -1417q-20 -32 -57 -32zM176 768h162v553l4 38l-147 -129q-8 -6 -18 -6t-17 9l-23 32l216 188h60v-685h150v-50h-387v50zM1363 68q25 0 25 -25v-43h-486v25q0 19 14 31l241 243q103 103 120.5 155t17.5 86q0 67 -41 103t-104 36
q-117 0 -158 -129q-6 -20 -27 -20t-25 4l-24 4q14 98 78 150t159 52q149 0 183 -75.5t34 -120.5q0 -79 -37 -134t-120 -138l-212 -215q42 11 80 11h282z" />
    <glyph glyph-name="threequarters" unicode="&#xbe;" horiz-adv-x="1462" 
d="M1204 1449h43l-821 -1417q-20 -32 -56 -32h-41l819 1413q21 36 56 36zM1233 596q0 24 3 53l-296 -396h293v343zM497 921q0 145 -199 145v50q93 2 138.5 40.5t45.5 88.5q0 83 -41.5 117t-103.5 34q-113 0 -157 -127q-7 -20 -24 -21h-2q-3 0 -8 1t-14 2t-24 4
q14 98 77 150.5t156 52.5q143 0 177.5 -71t34.5 -127t-37 -100.5t-98 -63.5q153 -35 153 -171q0 -96 -69 -155.5t-171 -59.5q-160 0 -197.5 75.5t-48.5 112.5l31 13q8 4 22 4t20 -16q21 -56 56 -92t113 -36t124 47t46 103zM1297 253h129v-37q0 -16 -17 -16h-112v-200h-64
v200h-333q-24 0 -26 16l-6 33l361 483h68v-479z" />
    <glyph glyph-name="questiondown" unicode="&#xbf;" horiz-adv-x="758" 
d="M360.5 1007.5q27.5 27.5 56.5 27.5q49 0 77 -27.5t28 -57.5q0 -48 -27.5 -76t-67.5 -28t-67 27t-27 67t27.5 67.5zM393 -372q-147 0 -248.5 83.5t-101.5 223.5q0 185 104 255t167.5 112.5t66.5 97.5l11 167h67l6 -174v-5q0 -43 -24.5 -73.5t-61 -57.5t-140.5 -92.5
t-104 -221.5q0 -108 78 -171.5t168 -63.5t138.5 18t81.5 40t51.5 40t30.5 18t20 -13l26 -40q-143 -143 -336 -143z" />
    <glyph glyph-name="Agrave" unicode="&#xc0;" horiz-adv-x="1319" 
d="M336 526h649l-296 732q-7 18 -14 40t-15 47q-14 -50 -28 -88zM1225 0q-26 0 -38 28l-171 421h-712l-170 -421q-10 -28 -39 -28h-80l593 1449h105l593 -1449h-81zM474 1812q38 0 63 -22l233 -211h-73q-23 0 -39 12l-300 221h116z" />
    <glyph glyph-name="Aacute" unicode="&#xc1;" horiz-adv-x="1319" 
d="M336 526h649l-296 732q-7 18 -14 40t-15 47q-14 -50 -28 -88zM1225 0q-26 0 -38 28l-171 421h-712l-170 -421q-10 -28 -39 -28h-80l593 1449h105l593 -1449h-81zM616 1579h-71l232 211q25 24 64 22h114l-299 -221q-17 -12 -40 -12z" />
    <glyph glyph-name="Acircumflex" unicode="&#xc2;" horiz-adv-x="1319" 
d="M336 526h649l-296 732q-7 18 -14 40t-15 47q-14 -50 -28 -88zM1225 0q-26 0 -38 28l-171 421h-712l-170 -421q-10 -28 -39 -28h-80l593 1449h105l593 -1449h-81zM871 1579q-17 0 -34 10l-160 126q-8 6 -17 15q-9 -9 -17 -15l-161 -126q-14 -10 -33 -10h-76l240 204h93
l240 -204h-75z" />
    <glyph glyph-name="Atilde" unicode="&#xc3;" horiz-adv-x="1319" 
d="M336 526h649l-296 732q-7 18 -14 40t-15 47q-14 -50 -28 -88zM1225 0q-26 0 -38 28l-171 421h-712l-170 -421q-10 -28 -39 -28h-80l593 1449h105l593 -1449h-81zM790 1655q36 0 58 28q23 28 23 72h56q0 -117 -81 -155q-28 -13 -62 -13q-34 1 -64 17t-60 35t-56 35t-62 16
t-57 -28q-22 -29 -24 -72h-58q0 71 38 120q38 48 97 48q60 0 135 -52q29 -19 55 -35t62 -16z" />
    <glyph glyph-name="Adieresis" unicode="&#xc4;" horiz-adv-x="1319" 
d="M336 526h649l-296 732q-7 18 -14 40t-15 47q-14 -50 -28 -88zM1225 0q-26 0 -38 28l-171 421h-712l-170 -421q-10 -28 -39 -28h-80l593 1449h105l593 -1449h-81zM955 1705q-1 -16 -7 -31q-22 -50 -76 -50q-32 0 -58 25t-25 57q1 33 25 58t50 25q61 0 85 -52q6 -16 6 -32z
M529 1705q0 -16 -11 -39t-33 -33q-23 -9 -47 -9t-50 25q-39 37 -17 88q22 52 74 52q32 -1 51 -19t26 -34t7 -31z" />
    <glyph glyph-name="Aring" unicode="&#xc5;" horiz-adv-x="1319" 
d="M336 526h649l-296 732q-7 18 -14 40t-15 47q-14 -50 -28 -88zM1225 0q-26 0 -38 28l-171 421h-712l-170 -421q-10 -28 -39 -28h-80l593 1449h105l593 -1449h-81zM543 1669q1 -51 33 -84t84 -33t84 33q33 33 33 84t-33 84q-32 33 -84 33t-84 -33t-33 -84zM488 1669
q0 68 50 116q50 47 121 47q113 0 159 -98q30 -64 0 -130q-45 -97 -159 -97q-71 0 -121 47t-50 115z" />
    <glyph glyph-name="AE" unicode="&#xc6;" horiz-adv-x="1891" 
d="M380 526h557l-108 843q-12 -41 -39 -97zM1764 1449v-87h-834l74 -586h632v-85h-621l77 -604h672v-87h-759l-58 449h-610l-233 -423q-13 -26 -43 -26h-80l800 1449h983z" />
    <glyph glyph-name="Ccedilla" unicode="&#xc7;" horiz-adv-x="1440" 
d="M670 -280q8 0 16 -5.5t34 -17.5t75 -12q50 0 79 22.5t29 54.5q0 54 -45.5 74.5t-136.5 31.5l37 118q-284 16 -457.5 218t-173.5 526t197 529.5t513 205.5q220 0 322 -66.5t150 -109.5l-32 -46q-7 -12 -21 -12t-28.5 10.5t-57.5 42t-124 61.5t-211 30q-266 0 -433.5 -178
t-167.5 -474q0 -297 163.5 -473t416.5 -176q255 0 414 142q31 28 40 28q10 0 17 -7l41 -44q-197 -205 -507 -209l-23 -77q91 -16 138.5 -47t47.5 -91q0 -93 -73 -113t-115 -20q-87 0 -149 43l10 29q7 12 15 12z" />
    <glyph glyph-name="Egrave" unicode="&#xc8;" horiz-adv-x="1210" 
d="M1083 1449v-87h-762v-586h634v-85h-634v-604h762v-87h-868v1449h868zM473 1812q38 0 63 -22l233 -211h-73q-23 0 -39 12l-300 221h116z" />
    <glyph glyph-name="Eacute" unicode="&#xc9;" horiz-adv-x="1210" 
d="M1083 1449v-87h-762v-586h634v-85h-634v-604h762v-87h-868v1449h868zM615 1579h-71l232 211q25 24 64 22h114l-299 -221q-17 -12 -40 -12z" />
    <glyph glyph-name="Ecircumflex" unicode="&#xca;" horiz-adv-x="1210" 
d="M1083 1449v-87h-762v-586h634v-85h-634v-604h762v-87h-868v1449h868zM870 1579q-19 0 -34 10l-160 126q-8 6 -17 15q-9 -9 -17 -15l-161 -126q-14 -10 -34 -10h-75l240 204h93l240 -204h-75z" />
    <glyph glyph-name="Edieresis" unicode="&#xcb;" horiz-adv-x="1210" 
d="M1083 1449v-87h-762v-586h634v-85h-634v-604h762v-87h-868v1449h868zM954 1705q0 -16 -6 -31q-22 -50 -77 -50q-32 0 -57 24q-26 24 -26 58q0 33 25 58t49 25q61 0 86 -52q6 -16 6 -32zM528 1705q0 -16 -11 -39t-33 -33q-23 -9 -47 -9t-42 18q-19 18 -26 32q-7 15 -7 31
q0 15 7 31q24 52 65 53q42 -1 61 -19t26 -34t7 -31z" />
    <glyph glyph-name="Igrave" unicode="&#xcc;" horiz-adv-x="612" 
d="M358 0h-105v1449h105v-1449zM123 1812q38 0 62 -22l234 -211h-73q-23 0 -39 12l-300 221h116z" />
    <glyph glyph-name="Iacute" unicode="&#xcd;" horiz-adv-x="612" 
d="M358 0h-105v1449h105v-1449zM265 1579h-71l232 211q25 24 63 22h115l-299 -221q-17 -12 -40 -12z" />
    <glyph glyph-name="Icircumflex" unicode="&#xce;" horiz-adv-x="612" 
d="M358 0h-105v1449h105v-1449zM520 1579q-18 0 -35 10l-159 126q-14 10 -17 15q-9 -9 -17 -15l-161 -126q-14 -10 -34 -10h-75l240 204h92l241 -204h-75z" />
    <glyph glyph-name="Idieresis" unicode="&#xcf;" horiz-adv-x="612" 
d="M358 0h-105v1449h105v-1449zM604 1705q0 -53 -52 -74q-15 -7 -39 -7t-49 24q-26 24 -26 58q0 33 25 58t49 25q61 0 86 -52q6 -16 6 -32zM178 1705q0 -16 -11 -39t-33 -33q-23 -9 -47 -9t-42 18q-19 18 -26 32q-7 15 -7 31q0 15 7 31q24 52 65 53q42 -1 61 -19t26 -34
t7 -31z" />
    <glyph glyph-name="Eth" unicode="&#xd0;" horiz-adv-x="1612" 
d="M1382 724q0 299 -158 469.5t-424 170.5h-423v-597h414v-66h-414v-616h423q266 0 424 170t158 469zM50 767h221v682h529q311 0 501 -196.5t190 -528.5t-190 -528t-501 -196h-529v701h-221v66z" />
    <glyph glyph-name="Ntilde" unicode="&#xd1;" horiz-adv-x="1548" 
d="M266 1449q24 0 40 -19l938 -1256q-3 31 -3 59v1216h92v-1449h-50q-24 0 -38 20l-942 1258q3 -31 3 -58v-1220h-91v1449h51zM707 1758q42 0 94 -36q53 -36 79 -51q26 -16 62 -16t58 28t23 72h55q0 -116 -80 -155q-27 -13 -68 -13q-41 -1 -94 35t-80 52q-26 16 -62 16
t-58 -28q-22 -29 -24 -72h-57q0 71 38 120q37 48 114 48z" />
    <glyph glyph-name="Ograve" unicode="&#xd2;" horiz-adv-x="1633" 
d="M1240 1201q-159 176 -422 175t-423 -175t-161 -476q-1 -301 159 -475t426 -174q265 0 422 174q158 174 158 475q0 300 -159 476zM1507 724q0 -335 -191 -538t-499 -202t-499 204q-192 203 -192 536t191 537t500 204t500 -203q190 -203 190 -538zM633 1812q38 0 62 -22
l234 -211h-73q-22 0 -39 12l-300 221h116z" />
    <glyph glyph-name="Oacute" unicode="&#xd3;" horiz-adv-x="1633" 
d="M1240 1201q-159 176 -422 175t-423 -175t-161 -476q-1 -301 159 -475t426 -174q265 0 422 174q158 174 158 475q0 300 -159 476zM1507 724q0 -335 -191 -538t-499 -202t-499 204q-192 203 -192 536t191 537t500 204t500 -203q190 -203 190 -538zM775 1579h-72l233 211
q25 24 63 22h115l-299 -221q-17 -12 -40 -12z" />
    <glyph glyph-name="Ocircumflex" unicode="&#xd4;" horiz-adv-x="1633" 
d="M1240 1201q-159 176 -422 175t-423 -175t-161 -476q-1 -301 159 -475t426 -174q265 0 422 174q158 174 158 475q0 300 -159 476zM1507 724q0 -335 -191 -538t-499 -202t-499 204q-192 203 -192 536t191 537t500 204t500 -203q190 -203 190 -538zM1030 1579q-18 0 -35 10
l-159 126q-14 10 -17 15q-9 -9 -17 -15l-161 -126q-14 -10 -34 -10h-76l241 204h92l241 -204h-75z" />
    <glyph glyph-name="Otilde" unicode="&#xd5;" horiz-adv-x="1633" 
d="M1240 1201q-159 176 -422 175t-423 -175t-161 -476q-1 -301 159 -475t426 -174q265 0 422 174q158 174 158 475q0 300 -159 476zM1507 724q0 -335 -191 -538t-499 -202t-499 204q-192 203 -192 536t191 537t500 204t500 -203q190 -203 190 -538zM808 1722q52 -36 78 -51
q26 -16 62 -16t59 28t23 72h55q0 -72 -26 -107q-45 -61 -116 -61q-45 -1 -99 35t-81 52t-62 16t-57 -28q-22 -29 -24 -72h-58q0 71 38 120q38 48 97 48t111 -36z" />
    <glyph glyph-name="Odieresis" unicode="&#xd6;" horiz-adv-x="1633" 
d="M1240 1201q-159 176 -422 175t-423 -175t-161 -476q-1 -301 159 -475t426 -174q265 0 422 174q158 174 158 475q0 300 -159 476zM1507 724q0 -335 -191 -538t-499 -202t-499 204q-192 203 -192 536t191 537t500 204t500 -203q190 -203 190 -538zM1039 1624q-60 0 -84 50
q-7 15 -7 40t25 50t57 25t58 -25t26 -58q0 -34 -25 -58t-50 -24zM688 1705q0 -16 -11 -39t-33 -33q-23 -9 -47 -9t-42 18q-19 18 -26 32q-7 15 -7 31q0 15 7 31q24 52 65 53q42 -1 61 -19t26 -34t7 -31z" />
    <glyph glyph-name="multiply" unicode="&#xd7;" 
d="M1022 1061l-376 -375l381 -381l-52 -53l-382 381l-383 -383l-53 53l382 383l-377 377l54 55l377 -378l375 376z" />
    <glyph glyph-name="Oslash" unicode="&#xd8;" horiz-adv-x="1633" 
d="M816 76q266 0 424.5 174t158.5 478t-168 480l-763 -1026q145 -106 348 -106zM816 1375q-261 0 -422 -174.5t-161 -485.5t184 -489l764 1029q-151 120 -365 120zM1290 1288q217 -206 217 -552q0 -345 -190.5 -548t-500.5 -203q-232 0 -404 120l-134 -180q-25 -33 -64 -33
h-45l189 255q-232 205 -232 578q0 333 192 536.5t498 203.5q248 0 422 -133l114 153q12 16 21 23.5t30 7.5h56z" />
    <glyph glyph-name="Ugrave" unicode="&#xd9;" horiz-adv-x="1502" 
d="M1195 553v896h104v-896q0 -247 -149 -408q-149 -162 -399 -162t-399 162q-150 162 -150 408v896h105v-895q0 -210 119 -344q119 -135 324 -135t325 136t120 342zM565 1812q39 0 63 -22l233 -211h-73q-23 0 -38 12l-300 221h115z" />
    <glyph glyph-name="Uacute" unicode="&#xda;" horiz-adv-x="1502" 
d="M1195 553v896h104v-896q0 -247 -149 -408q-149 -162 -399 -162t-399 162q-150 162 -150 408v896h105v-895q0 -210 119 -344q119 -135 324 -135t325 136t120 342zM708 1579h-72l232 211q25 24 64 22h115l-299 -221q-17 -12 -40 -12z" />
    <glyph glyph-name="Ucircumflex" unicode="&#xdb;" horiz-adv-x="1502" 
d="M1195 553v896h104v-896q0 -247 -149 -408q-149 -162 -399 -162t-399 162q-150 162 -150 408v896h105v-895q0 -210 119 -344q119 -135 324 -135t325 136t120 342zM963 1579q-18 0 -35 10l-160 126q-12 9 -16 15l-179 -141q-14 -10 -33 -10h-76l241 204h92l240 -204h-74z
" />
    <glyph glyph-name="Udieresis" unicode="&#xdc;" horiz-adv-x="1502" 
d="M1195 553v896h104v-896q0 -247 -149 -408q-149 -162 -399 -162t-399 162q-150 162 -150 408v896h105v-895q0 -210 119 -344q119 -135 324 -135t325 136t120 342zM1047 1705q0 -16 -7 -31q-22 -50 -76 -50q-53 0 -77 49q-23 49 10 82q33 34 58 34q61 0 85 -52q7 -16 7 -32
zM621 1705q0 -16 -12 -39t-34 -33q-22 -9 -46 -9t-50 25q-39 37 -17 88q22 52 75 52q31 -1 50 -19t27 -34t7 -31z" />
    <glyph glyph-name="Yacute" unicode="&#xdd;" horiz-adv-x="1227" 
d="M667 0h-106v598l-535 851h91q23 0 40 -26l414 -665q27 -47 43 -90q14 40 43 90l414 665q14 26 39 26h92l-535 -851v-598zM571 1579h-71l232 211q25 24 64 22h114l-299 -221q-17 -12 -40 -12z" />
    <glyph glyph-name="Thorn" unicode="&#xde;" horiz-adv-x="1215" 
d="M350 377h270q187 0 298 98.5t111 258.5q0 161 -103 250.5t-306 89.5h-270v-697zM350 293v-293h-104v1449h104v-291h270q255 0 384.5 -111.5t129.5 -311.5t-138.5 -321t-375.5 -121h-270z" />
    <glyph glyph-name="germandbls" unicode="&#xdf;" horiz-adv-x="1185" 
d="M919.5 1378.5q98.5 -88.5 98.5 -199.5q0 -149 -133.5 -239.5t-163 -127t-29.5 -74.5t17 -63t45 -43.5t63.5 -33.5t100 -44t118 -87.5t53.5 -147.5q0 -158 -97 -246.5t-265 -88.5t-303 124l22 34q11 17 27 17t35 -16.5t77 -52t138 -35.5q138 0 206 65.5t68 149.5
q0 85 -30 126t-75 67.5t-97.5 46t-97.5 45t-75 63.5t-30 96t24.5 94.5t62 68t80.5 61.5t105 87t62 144t-67.5 156t-212.5 69t-245 -92.5t-100 -278.5v-1023h-97v1025q0 204 125 323t309 119q183 0 281.5 -88.5z" />
    <glyph glyph-name="agrave" unicode="&#xe0;" horiz-adv-x="996" 
d="M204 251q0 -96 58 -146q58 -51 131 -51q126 0 202 42q77 42 165 130v266q-556 -15 -556 -241zM528 1036q240 0 307 -218q20 -69 20 -154v-664h-39q-31 0 -38 29l-14 130q-94 -92 -155 -122q-110 -55 -227 -53q-182 0 -249 143q-23 49 -23 117q0 215 353 284
q123 25 297 29v107q0 141 -61 217t-196 76t-256 -110q-47 -41 -69 -2l-17 29q162 162 367 162zM401 1465q40 0 61 -32l161 -244h-56q-24 0 -38 17l-222 259h94z" />
    <glyph glyph-name="aacute" unicode="&#xe1;" horiz-adv-x="996" 
d="M204 251q0 -96 58 -146q58 -51 131 -51q126 0 202 42q77 42 165 130v266q-556 -15 -556 -241zM528 1036q240 0 307 -218q20 -69 20 -154v-664h-39q-31 0 -38 29l-14 130q-94 -92 -155 -122q-110 -55 -227 -53q-182 0 -249 143q-23 49 -23 117q0 215 353 284
q123 25 297 29v107q0 141 -61 217t-196 76t-256 -110q-47 -41 -69 -2l-17 29q162 162 367 162zM652 1465h97l-222 -259q-15 -19 -38 -17h-58l161 244q20 32 60 32z" />
    <glyph glyph-name="acircumflex" unicode="&#xe2;" horiz-adv-x="996" 
d="M204 251q0 -96 58 -146q58 -51 131 -51q126 0 202 42q77 42 165 130v266q-556 -15 -556 -241zM528 1036q240 0 307 -218q20 -69 20 -154v-664h-39q-31 0 -38 29l-14 130q-94 -92 -155 -122q-110 -55 -227 -53q-182 0 -249 143q-23 49 -23 117q0 215 353 284
q123 25 297 29v107q0 141 -61 217t-196 76t-256 -110q-47 -41 -69 -2l-17 29q162 162 367 162zM718 1197q-16 0 -28 12l-160 167q-6 4 -11 12q-2 -4 -10 -12l-161 -167q-12 -12 -27 -12h-69l223 252h87l222 -252h-66z" />
    <glyph glyph-name="atilde" unicode="&#xe3;" horiz-adv-x="996" 
d="M204 251q0 -96 58 -146q58 -51 131 -51q126 0 202 42q77 42 165 130v266q-556 -15 -556 -241zM528 1036q240 0 307 -218q20 -69 20 -154v-664h-39q-31 0 -38 29l-14 130q-94 -92 -155 -122q-110 -55 -227 -53q-182 0 -249 143q-23 49 -23 117q0 215 353 284
q123 25 297 29v107q0 141 -61 217t-196 76t-256 -110q-47 -41 -69 -2l-17 29q162 162 367 162zM644 1311q36 0 58 28t24 76h60q0 -123 -85 -162q-28 -13 -62 -13t-64 17t-58 37t-54 37q-27 17 -61 17t-57 -30t-24 -75h-63q0 77 40 126t99 49q60 0 133 -54q27 -20 53 -36
q25 -16 61 -17z" />
    <glyph glyph-name="adieresis" unicode="&#xe4;" horiz-adv-x="996" 
d="M204 251q0 -96 58 -146q58 -51 131 -51q126 0 202 42q77 42 165 130v266q-556 -15 -556 -241zM528 1036q240 0 307 -218q20 -69 20 -154v-664h-39q-31 0 -38 29l-14 130q-94 -92 -155 -122q-110 -55 -227 -53q-182 0 -249 143q-23 49 -23 117q0 215 353 284
q123 25 297 29v107q0 141 -61 217t-196 76t-256 -110q-47 -41 -69 -2l-17 29q162 162 367 162zM702 1400q26 0 51 -26t25 -58t-18 -51q-30 -32 -64 -32q-33 0 -60 23t-27 50q0 26 7 42q24 52 86 52zM427 1323q0 -63 -53 -83q-16 -7 -39 -7t-49 23q-27 23 -27 57q1 34 19 54
q18 21 33 27t31 6t32 -7t34 -27q18 -19 19 -43z" />
    <glyph glyph-name="aring" unicode="&#xe5;" horiz-adv-x="996" 
d="M204 251q0 -96 58 -146q58 -51 131 -51q126 0 202 42q77 42 165 130v266q-556 -15 -556 -241zM528 1036q240 0 307 -218q20 -69 20 -154v-664h-39q-31 0 -38 29l-14 130q-94 -92 -155 -122q-110 -55 -227 -53q-182 0 -249 143q-23 49 -23 117q0 215 353 284
q123 25 297 29v107q0 141 -61 217t-196 76t-256 -110q-47 -41 -69 -2l-17 29q162 162 367 162zM401 1333q0 -51 33 -84q32 -33 84 -33t85 34q33 32 33 83t-33 84t-85 33t-84 -33q-33 -33 -33 -84zM342 1333q0 37 14 68q28 62 94 87q32 13 85 13t108 -47q52 -48 52 -119
q0 -72 -49 -119t-107 -49q-136 -3 -183 99q-14 30 -14 67z" />
    <glyph glyph-name="ae" unicode="&#xe6;" horiz-adv-x="1647" 
d="M952.5 863q-87.5 -100 -99.5 -271h612q0 172 -76.5 271.5t-212.5 99.5t-223.5 -100zM204 268q0 -214 238 -214q132 0 225 91t93 249v133q-556 -19 -556 -259zM520 1036q129 0 203 -66t97 -180q48 114 140.5 179.5t239.5 65.5t249 -123t102 -344q0 -23 -5 -31t-19 -8h-676
q0 -224 92 -344t253 -120q160 0 221.5 53.5t73.5 53.5t20 -10l25 -31q-76 -98 -185.5 -121t-162.5 -23q-134 0 -231 70.5t-145 210.5q-36 -144 -150.5 -214t-247.5 -70q-213 0 -258.5 103t-45.5 173q0 144 160.5 234.5t489.5 98.5v71q0 141 -61 218t-197 77t-207 -66.5
t-88 -66.5t-29 19l-17 29q160 162 359 162z" />
    <glyph glyph-name="ccedilla" unicode="&#xe7;" horiz-adv-x="931" 
d="M400 -280q8 0 16.5 -5.5t34.5 -17.5t75 -12t78.5 22.5t29.5 54.5q0 53 -45.5 74t-136.5 32l37 121q-179 12 -289 150t-110 372t122 379t324 145t326 -117l-25 -35q-13 -13 -23 -13t-66.5 44t-168.5 44q-111 0 -179 -31t-139.5 -121t-71.5 -298t95.5 -326.5t254.5 -118.5
t219 55.5t72 55.5t20 -10l27 -33q-46 -59 -132 -99t-194 -44l-25 -81q91 -16 139 -47t48 -91q0 -93 -73.5 -113t-115.5 -20q-89 0 -148 43l10 29q6 12 14 12z" />
    <glyph glyph-name="egrave" unicode="&#xe8;" horiz-adv-x="1046" 
d="M546 963q-74 0 -136 -25q-189 -76 -220 -326h672q0 82 -22 147q-46 129 -162 179q-58 24 -132 25zM90 530q0 226 121 362q59 66 145 105q86 38 182 38q188 0 300 -118t112 -328q0 -39 -27 -39h-737v-20q0 -223 101 -345t271 -121q169 1 294 93q22 17 34 17t19 -10l27 -33
q-79 -98 -262 -133q-58 -11 -138 -11t-166 36q-174 73 -243 277q-33 101 -33 230zM433 1465q40 0 61 -32l160 -244h-55q-24 0 -38 17l-222 259h94z" />
    <glyph glyph-name="eacute" unicode="&#xe9;" horiz-adv-x="1046" 
d="M546 963q-74 0 -136 -25q-189 -76 -220 -326h672q0 82 -22 147q-46 129 -162 179q-58 24 -132 25zM90 530q0 226 121 362q59 66 145 105q86 38 182 38q188 0 300 -118t112 -328q0 -39 -27 -39h-737v-20q0 -223 101 -345t271 -121q169 1 294 93q22 17 34 17t19 -10l27 -33
q-79 -98 -262 -133q-58 -11 -138 -11t-166 36q-174 73 -243 277q-33 101 -33 230zM684 1465h96l-221 -259q-15 -19 -38 -17h-58l161 244q20 32 60 32z" />
    <glyph glyph-name="ecircumflex" unicode="&#xea;" horiz-adv-x="1046" 
d="M546 963q-74 0 -136 -25q-189 -76 -220 -326h672q0 82 -22 147q-46 129 -162 179q-58 24 -132 25zM90 530q0 226 121 362q59 66 145 105q86 38 182 38q188 0 300 -118t112 -328q0 -39 -27 -39h-737v-20q0 -223 101 -345t271 -121q169 1 294 93q22 17 34 17t19 -10l27 -33
q-79 -98 -262 -133q-58 -11 -138 -11t-166 36q-174 73 -243 277q-33 101 -33 230zM750 1197q-16 0 -28 12l-160 167q-6 4 -11 12q-2 -4 -10 -12l-161 -167q-12 -12 -28 -12h-68l223 252h87l222 -252h-66z" />
    <glyph glyph-name="edieresis" unicode="&#xeb;" horiz-adv-x="1046" 
d="M546 963q-74 0 -136 -25q-189 -76 -220 -326h672q0 82 -22 147q-46 129 -162 179q-58 24 -132 25zM90 530q0 226 121 362q59 66 145 105q86 38 182 38q188 0 300 -118t112 -328q0 -39 -27 -39h-737v-20q0 -223 101 -345t271 -121q169 1 294 93q22 17 34 17t19 -10l27 -33
q-79 -98 -262 -133q-58 -11 -138 -11t-166 36q-174 73 -243 277q-33 101 -33 230zM734 1400q26 0 51 -27t25 -50q0 -63 -53 -83q-16 -7 -39 -7t-50 23t-27 50q0 26 7 42q24 52 86 52zM459 1323q0 -63 -53 -83q-16 -7 -39 -7t-50 24q-42 36 -20 90q22 53 67 53t70 -27
q25 -26 25 -50z" />
    <glyph glyph-name="igrave" unicode="&#xec;" horiz-adv-x="486" 
d="M292 1019v-1019h-97v1019h97zM129 1465q40 0 60 -32l161 -244h-55q-24 0 -38 17l-222 259h94z" />
    <glyph glyph-name="iacute" unicode="&#xed;" horiz-adv-x="486" 
d="M292 1019v-1019h-97v1019h97zM380 1465h96l-221 -259q-15 -19 -38 -17h-58l160 244q20 32 61 32z" />
    <glyph glyph-name="icircumflex" unicode="&#xee;" horiz-adv-x="486" 
d="M292 1019v-1019h-97v1019h97zM445 1197q-16 0 -27 12l-160 167q-6 4 -11 12q-2 -4 -10 -12l-161 -167q-12 -12 -28 -12h-68l223 252h87l222 -252h-67z" />
    <glyph glyph-name="idieresis" unicode="&#xef;" horiz-adv-x="486" 
d="M292 1019v-1019h-97v1019h97zM430 1400q26 0 51 -27t25 -50q0 -63 -53 -83q-16 -7 -39 -7t-50 23t-27 50q0 26 7 42q24 52 86 52zM79 1400q26 0 51 -27t25 -57q-1 -31 -19 -50q-18 -20 -34 -26t-32 -7q-16 0 -32 7q-76 35 -41 116q20 44 82 44z" />
    <glyph glyph-name="eth" unicode="&#xf0;" horiz-adv-x="1097" 
d="M546 866q-169 0 -263.5 -112t-94.5 -293q0 -180 102 -288t260 -108q168 0 264 134.5t102 377.5q-55 192 -170.5 240.5t-199.5 48.5zM1008 613q0 -287 -119 -456t-350 -169q-191 0 -319.5 130.5t-128.5 340.5t119 347t313 137t280 -88t119 -149q-28 345 -272 509
l-168 -148l-17 29q-7 8 -7 18t12 22l129 111q-116 64 -273 98q-27 5 -27 31q0 15 7 29l6 20q201 -31 352 -125l156 139l19 -30q5 -7 5 -17t-14 -23l-116 -102q294 -217 294 -654z" />
    <glyph glyph-name="ntilde" unicode="&#xf1;" horiz-adv-x="1107" 
d="M603 957q-194 0 -340 -193v-764h-97v1019h53q27 0 31 -26l9 -153q157 197 369 195q251 0 317 -224q22 -71 22 -160v-651h-98v651q0 143 -65 225q-66 81 -201 81zM688 1311q36 0 58 28t24 76h60q0 -123 -85 -162q-28 -13 -62 -13t-64 17t-58 37t-54 37q-27 17 -61 17
t-57 -30t-24 -75h-63q0 77 40 126t99 49q60 0 133 -54q27 -20 53 -36q25 -16 61 -17z" />
    <glyph glyph-name="ograve" unicode="&#xf2;" horiz-adv-x="1107" 
d="M554 63q91 -1 159 31q138 64 182 231q23 82 23 184q0 322 -205 418q-68 31 -159 31q-178 -1 -272 -120q-93 -120 -93 -328q0 -321 206 -415q68 -32 159 -32zM554 1035q110 0 196 -37q170 -73 237 -271q31 -97 31 -217q0 -241 -122 -382t-341 -141t-342 141
q-124 141 -124 384q0 242 123 382q123 141 342 141zM438 1465q40 0 61 -32l160 -244h-55q-24 0 -38 17l-222 259h94z" />
    <glyph glyph-name="oacute" unicode="&#xf3;" horiz-adv-x="1107" 
d="M554 63q91 -1 159 31q138 64 182 231q23 82 23 184q0 322 -205 418q-68 31 -159 31q-178 -1 -272 -120q-93 -120 -93 -328q0 -321 206 -415q68 -32 159 -32zM554 1035q110 0 196 -37q170 -73 237 -271q31 -97 31 -217q0 -241 -122 -382t-341 -141t-342 141
q-124 141 -124 384q0 242 123 382q123 141 342 141zM689 1465h96l-221 -259q-15 -19 -38 -17h-58l161 244q20 32 60 32z" />
    <glyph glyph-name="ocircumflex" unicode="&#xf4;" horiz-adv-x="1107" 
d="M554 63q91 -1 159 31q138 64 182 231q23 82 23 184q0 322 -205 418q-68 31 -159 31q-178 -1 -272 -120q-93 -120 -93 -328q0 -321 206 -415q68 -32 159 -32zM554 1035q110 0 196 -37q170 -73 237 -271q31 -97 31 -217q0 -241 -122 -382t-341 -141t-342 141
q-124 141 -124 384q0 242 123 382q123 141 342 141zM755 1197q-16 0 -28 12l-160 167q-6 4 -11 12q-2 -4 -10 -12l-161 -167q-12 -12 -28 -12h-68l223 252h87l222 -252h-66z" />
    <glyph glyph-name="otilde" unicode="&#xf5;" horiz-adv-x="1107" 
d="M554 63q91 -1 159 31q138 64 182 231q23 82 23 184q0 322 -205 418q-68 31 -159 31q-178 -1 -272 -120q-93 -120 -93 -328q0 -321 206 -415q68 -32 159 -32zM554 1035q110 0 196 -37q170 -73 237 -271q31 -97 31 -217q0 -241 -122 -382t-341 -141t-342 141
q-124 141 -124 384q0 242 123 382q123 141 342 141zM451 1418q41 0 92 -37t77 -53t62 -17q36 0 58 28t23 76h60q0 -123 -85 -162q-28 -13 -62 -13t-64 17t-58 37t-54 37t-61 17t-57 -30t-25 -75h-62q0 37 10 69q33 106 146 106z" />
    <glyph glyph-name="odieresis" unicode="&#xf6;" horiz-adv-x="1107" 
d="M554 63q91 -1 159 31q138 64 182 231q23 82 23 184q0 322 -205 418q-68 31 -159 31q-178 -1 -272 -120q-93 -120 -93 -328q0 -321 206 -415q68 -32 159 -32zM554 1035q110 0 196 -37q170 -73 237 -271q31 -97 31 -217q0 -241 -122 -382t-341 -141t-342 141
q-124 141 -124 384q0 242 123 382q123 141 342 141zM739 1400q26 0 51 -26t25 -58t-24 -57q-24 -26 -58 -26q-33 0 -60 23t-27 50q0 26 7 42q25 52 86 52zM464 1323q0 -63 -53 -83q-16 -7 -39 -7t-49 23q-27 23 -27 57t18 54q18 21 34 27q15 6 31 6t32 -7q17 -7 35 -27
q18 -19 18 -43z" />
    <glyph glyph-name="divide" unicode="&#xf7;" 
d="M498 320.5q0 39.5 27 68t57 28.5q48 0 76.5 -27.5t28.5 -58.5q0 -51 -28.5 -78t-67.5 -27t-66 27.5t-27 67zM498 1050q0 40 27 68t57 28q48 0 76.5 -27.5t28.5 -58.5q0 -51 -28.5 -78t-67.5 -27t-66 27.5t-27 67.5zM112 724h961v-75h-961v75z" />
    <glyph glyph-name="oslash" unicode="&#xf8;" horiz-adv-x="1107" 
d="M554 61q178 0 273.5 120t95.5 323q0 202 -82 319l-514 -691q89 -71 227 -71zM798 872q-95 89 -258 89t-259.5 -121t-96.5 -334t98 -329zM893 894q125 -141 125 -382q0 -240 -121.5 -382.5t-342.5 -142.5q-165 0 -275 81l-83 -112q-25 -33 -65 -33h-39l138 186
q-141 139 -141 390t123 393.5t342 142.5q176 0 293 -96l89 119q21 29 50 29h51z" />
    <glyph glyph-name="ugrave" unicode="&#xf9;" horiz-adv-x="1107" 
d="M140 368v651h99v-651q0 -143 65 -225q66 -81 200 -82q193 0 340 192v766h98v-1019h-54q-29 0 -30 27l-9 151q-157 -194 -370 -194q-251 0 -317 224q-22 71 -22 160zM431 1465q40 0 61 -32l160 -244h-55q-24 0 -38 17l-222 259h94z" />
    <glyph glyph-name="uacute" unicode="&#xfa;" horiz-adv-x="1107" 
d="M140 368v651h99v-651q0 -143 65 -225q66 -81 200 -82q193 0 340 192v766h98v-1019h-54q-29 0 -30 27l-9 151q-157 -194 -370 -194q-251 0 -317 224q-22 71 -22 160zM682 1465h96l-221 -259q-15 -19 -38 -17h-58l161 244q20 32 60 32z" />
    <glyph glyph-name="ucircumflex" unicode="&#xfb;" horiz-adv-x="1107" 
d="M140 368v651h99v-651q0 -143 65 -225q66 -81 200 -82q193 0 340 192v766h98v-1019h-54q-29 0 -30 27l-9 151q-157 -194 -370 -194q-251 0 -317 224q-22 71 -22 160zM748 1197q-16 0 -28 12l-160 167q-6 4 -11 12q-2 -4 -10 -12l-161 -167q-12 -12 -28 -12h-68l223 252h87
l222 -252h-66z" />
    <glyph glyph-name="udieresis" unicode="&#xfc;" horiz-adv-x="1107" 
d="M140 368v651h99v-651q0 -143 65 -225q66 -81 200 -82q193 0 340 192v766h98v-1019h-54q-29 0 -30 27l-9 151q-157 -194 -370 -194q-251 0 -317 224q-22 71 -22 160zM732 1400q26 0 51 -27t25 -50q0 -63 -53 -83q-16 -7 -39 -7t-50 23t-27 50q0 26 7 42q24 52 86 52z
M381 1400q26 0 51 -27t25 -50q0 -63 -53 -83q-16 -7 -32 -7t-32 7q-76 35 -41 116q20 44 82 44z" />
    <glyph glyph-name="yacute" unicode="&#xfd;" horiz-adv-x="997" 
d="M103 1019q26 0 37 -25l343 -792q11 -27 20 -64q5 16 11 32t11 32l339 792q11 25 35 25h75l-586 -1347q-14 -32 -44 -32h-70l180 398l-431 981h80zM658 1465h97l-221 -259q-15 -19 -38 -17h-59l161 244q20 32 60 32z" />
    <glyph glyph-name="thorn" unicode="&#xfe;" horiz-adv-x="1095" 
d="M918 516q0 441 -325 441q-195 0 -330 -199v-535q58 -88 129.5 -124t161.5 -36q175 0 269.5 124t94.5 329zM263 -360h-97v1850h97v-650q147 195 347 195q199 0 303.5 -129.5t104.5 -374.5t-118 -394.5t-321 -149.5q-204 0 -316 157v-504z" />
    <glyph glyph-name="ydieresis" unicode="&#xff;" horiz-adv-x="997" 
d="M103 1019q26 0 37 -25l343 -792q11 -27 20 -64q5 16 11 32t11 32l339 792q11 25 35 25h75l-586 -1347q-14 -32 -44 -32h-70l180 398l-431 981h80zM708 1400q26 0 51 -26t25 -58t-18 -51q-30 -32 -64 -32t-61 24q-26 24 -26 68q1 45 53 69q14 6 40 6zM414 1367
q18 -19 19 -51q0 -32 -18 -51q-30 -32 -63 -32t-60 23t-27 57q1 34 19 54q18 21 33 27t31 6t32 -7t34 -26z" />
    <glyph glyph-name="Aogonek" unicode="&#x104;" horiz-adv-x="1319" 
d="M336 526h649l-296 732q-7 17 -14 39.5t-15 47.5q-14 -50 -28 -88zM1075 -202q0 110 140 202q-20 4 -28 28l-171 421h-712l-170 -421q-10 -28 -39 -28h-80l593 1449h105l593 -1449q-36 0 -95.5 -55t-59.5 -114q0 -60 33 -87.5t73 -27.5t59 6t32.5 12t20.5 11.5t15 5.5
t12 -8l16 -35q-63 -54 -152 -54t-137 38.5t-48 105.5z" />
    <glyph glyph-name="aogonek" unicode="&#x105;" horiz-adv-x="996" 
d="M204 251q0 -96 57.5 -146.5t131.5 -50.5q124 0 204 43.5t163 128.5v266q-556 -15 -556 -241zM855 0q-136 -74 -136 -188q0 -40 32.5 -68t72.5 -28t59.5 6t33 12t20.5 11.5t15 5.5t12 -8l16 -35q-63 -54 -152 -54t-137 38.5t-48 105.5q0 117 149 207q-10 9 -14 24l-14 130
q-93 -91 -177 -133t-205 -42q-182 0 -227 96t-45 164q0 139 158.5 222t491.5 91v107q0 141 -61 217t-196 76t-207 -65.5t-89 -65.5t-29 19l-17 29q162 162 367 162q242 0 284.5 -143.5t42.5 -228.5v-664z" />
    <glyph glyph-name="Cacute" unicode="&#x106;" horiz-adv-x="1440" 
d="M1326 193q-199 -213 -510 -211t-500 205t-189 535q0 331 197 538q199 207 513 205q221 0 373 -100q50 -33 99 -76l-32 -46q-7 -12 -21 -12t-28 11q-34 27 -90 61q-117 72 -275 72q-158 1 -269 -45q-227 -93 -315 -335q-45 -120 -45 -272q0 -296 166 -477
q164 -174 414 -172q255 0 414 142q31 28 40 28q10 0 17 -7zM797 1579h-72l232 211q25 24 64 22h115l-299 -221q-17 -12 -40 -12z" />
    <glyph glyph-name="cacute" unicode="&#x107;" horiz-adv-x="931" 
d="M814 870q-10 0 -41 24t-93 45q-148 49 -283 -13t-183 -230q-25 -82 -25 -188q0 -209 96 -327t255 -118q160 0 259 94q19 17 31 17t20 -10l27 -33q-75 -97 -235 -132t-291 23q-165 72 -229 267q-32 97 -32 217q0 238 122 384q122 145 324 145q203 0 326 -117l-25 -35
q-13 -13 -23 -13zM687 1465h96l-221 -259q-15 -19 -38 -17h-58l161 244q20 32 60 32z" />
    <glyph glyph-name="Eogonek" unicode="&#x118;" horiz-adv-x="1253" 
d="M990 0q-136 -74 -136 -188q0 -40 33 -68t73 -28t59 6t32.5 12t21 11.5t15.5 5.5t11 -8l16 -35q-63 -54 -152 -54t-137 38.5t-48 114.5t56.5 126t83.5 67h-703v1449h868v-87h-762v-586h634v-85h-634v-604h762v-87h-93z" />
    <glyph glyph-name="eogonek" unicode="&#x119;" horiz-adv-x="1046" 
d="M862 612q0 163 -86 257t-230 94q-150 0 -243 -94t-113 -257h672zM950 589q0 -39 -27 -39h-737v-20q0 -223 100.5 -344t271.5 -121t243.5 54.5t84.5 54.5t19 -10l27 -33q-57 -73 -143 -100t-129 -34q-129 -77 -129 -177q0 -49 33 -76.5t73 -27.5t59.5 6t32.5 12t21 11.5
t16 5.5t10 -8l17 -35q-63 -54 -152 -54t-137 38.5t-48 105.5q0 99 121 190l-21 -1q-213 0 -339.5 144t-126.5 383t123 380t337 141q176 0 288 -118t112 -328z" />
    <glyph glyph-name="dotlessi" unicode="&#x131;" horiz-adv-x="486" 
d="M292 1019v-1019h-97v1019h97z" />
    <glyph glyph-name="Lslash" unicode="&#x141;" horiz-adv-x="1091" 
d="M791 897q0 -21 -20 -32l-407 -217v-559h687v-89h-792v601l-200 -103v67q0 19 19 30l181 95v759h105v-710l427 223v-65z" />
    <glyph glyph-name="lslash" unicode="&#x142;" horiz-adv-x="614" 
d="M355 1490v-607l201 91v-51q0 -23 -19 -32l-182 -86v-805h-97v768l-200 -92v53q0 22 19 30l181 86v645h97z" />
    <glyph glyph-name="Nacute" unicode="&#x143;" horiz-adv-x="1548" 
d="M266 1449q24 0 40 -19l938 -1256q-3 31 -3 59v1216h92v-1449h-50q-24 0 -38 20l-942 1258q3 -31 3 -58v-1220h-91v1449h51zM768 1579h-72l233 211q25 24 63 22h115l-299 -221q-17 -12 -40 -12z" />
    <glyph glyph-name="nacute" unicode="&#x144;" horiz-adv-x="1107" 
d="M603 957q-194 0 -340 -193v-764h-97v1019h53q27 0 31 -26l9 -153q157 197 369 195q251 0 317 -224q22 -71 22 -160v-651h-98v651q0 143 -65 225q-66 81 -201 81zM698 1465h97l-222 -259q-15 -19 -37 -17h-59l161 244q20 32 60 32z" />
    <glyph glyph-name="OE" unicode="&#x152;" horiz-adv-x="2280" 
d="M1141.5 1201q-143.5 176 -381.5 176q-237 0 -382 -176.5t-145 -476.5t145 -474.5t382 -174.5t381 174t144 475t-143.5 477zM1296 342q-162 -355 -570 -355q-116 0 -230.5 52t-242 203t-127.5 483t172.5 536t453.5 204t393.5 -136.5t150.5 -220.5v341h857v-87h-762v-586
h634v-85h-634v-604h762v-87h-857v342z" />
    <glyph glyph-name="oe" unicode="&#x153;" horiz-adv-x="1758" 
d="M1576 592q0 173 -78 272t-210 99q-138 0 -225.5 -100t-99.5 -271h613zM528 63q165 0 250.5 119.5t85.5 327.5q0 322 -126 385t-210 63q-166 0 -252.5 -119.5t-86.5 -328.5q0 -321 127.5 -384t211.5 -63zM1559 912q103 -123 103 -344q0 -23 -5.5 -31t-20.5 -8h-675
q0 -225 93 -344.5t246 -119.5t220.5 54.5t79.5 54.5t19 -10l27 -33q-75 -97 -185 -120.5t-164 -23.5q-138 0 -237 76t-145 226q-43 -142 -143 -222t-252 -80q-201 0 -316 142t-115 381.5t115.5 382t318.5 142.5q147 0 246.5 -78.5t142.5 -217.5q39 133 139.5 214.5
t252.5 81.5t255 -123z" />
    <glyph glyph-name="Sacute" unicode="&#x15a;" horiz-adv-x="1107" 
d="M254 1097q0 -180 230 -261q66 -24 134 -46t133 -49q230 -96 230 -318q0 -191 -125 -315t-339 -124q-260 0 -428 189l29 45q12 15 24 15t28 -12q14 -12 34 -30q137 -120 311 -120q173 0 270 94q98 94 98 237q0 142 -114 215q-70 45 -194 84q-125 39 -189 65
q-230 94 -230 326q0 155 112 264t321 109q208 0 351 -145l-25 -47q-19 -36 -60 1q-115 104 -273 104t-243 -82t-85 -199zM535 1579h-72l232 211q25 24 64 22h114l-299 -221q-17 -12 -39 -12z" />
    <glyph glyph-name="sacute" unicode="&#x15b;" horiz-adv-x="880" 
d="M707 879q-13 1 -31 13q-104 70 -191 70q-141 0 -210 -58t-69 -137q0 -117 180 -173q155 -49 207 -69q183 -72 180 -227q0 -137 -98 -227q-98 -89 -273 -88q-176 1 -311 125l24 34q11 17 26 17q15 -1 35 -17q101 -86 222 -86q209 -2 267 138q17 41 17 90q0 124 -180 180
q-51 16 -149 46t-144 66q-97 75 -95 186q1 111 94 193q94 82 258 81q163 -1 283 -109l-22 -34q-7 -14 -20 -14zM626 1465h96l-221 -259q-15 -19 -38 -17h-59l161 244q20 32 61 32z" />
    <glyph glyph-name="Scaron" unicode="&#x160;" horiz-adv-x="1070" 
d="M254 1097q0 -180 230 -261q66 -24 134 -46t133 -49q230 -96 230 -318q0 -191 -125 -315t-339 -124q-260 0 -428 189l29 45q12 15 24 15t28 -12q14 -12 34 -30q137 -120 311 -120q173 0 270 94q98 94 98 237q0 142 -114 215q-70 45 -194 84q-125 39 -189 65
q-230 94 -230 326q0 155 112 264t321 109q208 0 351 -145l-25 -47q-19 -36 -60 1q-115 104 -273 104t-243 -82t-85 -199zM376 1783q14 0 34 -10l160 -126q8 -6 17 -15q8 8 17 15l160 126q14 10 35 10h74l-240 -204h-92l-241 204h76z" />
    <glyph glyph-name="scaron" unicode="&#x161;" horiz-adv-x="880" 
d="M707 879q-13 1 -31 13q-104 70 -191 70q-141 0 -210 -58t-69 -137q0 -117 180 -173q155 -49 207 -69q183 -72 180 -227q0 -137 -98 -227q-98 -89 -273 -88q-176 1 -311 125l24 34q11 17 26 17q15 -1 35 -17q101 -86 222 -86q209 -2 267 138q17 41 17 90q0 124 -180 180
q-51 16 -149 46t-144 66q-97 75 -95 186q1 111 94 193q94 82 258 81q163 -1 283 -109l-22 -34q-7 -14 -20 -14zM268 1449q16 0 28 -11l160 -167l11 -14l11 14l160 167q9 11 28 11h66l-222 -252h-87l-223 252h68z" />
    <glyph glyph-name="Ydieresis" unicode="&#x178;" horiz-adv-x="1227" 
d="M667 0h-106v598l-535 851h91q23 0 40 -26l414 -665q27 -47 43 -90q14 40 43 90l414 665q14 26 39 26h92l-535 -851v-598zM910 1705q0 -16 -6 -31q-22 -50 -77 -50q-32 0 -57 24q-26 24 -26 58q0 33 25 58t49 25q61 0 86 -52q6 -16 6 -32zM484 1705q0 -16 -11 -39t-33 -33
q-23 -9 -47 -9t-42 18q-19 18 -26 32q-7 15 -7 31q0 15 7 31q24 52 65 53q42 -1 61 -19t26 -34t7 -31z" />
    <glyph glyph-name="Zacute" unicode="&#x179;" horiz-adv-x="1296" 
d="M1191 1449v-36q0 -22 -14 -42l-920 -1284h926v-87h-1065v38q0 19 12 37l922 1287h-908v87h1047zM630 1579h-72l233 211q25 24 63 22h115l-299 -221q-17 -12 -40 -12z" />
    <glyph glyph-name="zacute" unicode="&#x17a;" horiz-adv-x="925" 
d="M846 978q0 -22 -15 -39l-637 -862h626v-77h-744v39q0 17 15 38l640 865h-621v77h736v-41zM618 1465h97l-221 -259q-15 -19 -38 -17h-59l161 244q20 32 60 32z" />
    <glyph glyph-name="Zdotaccent" unicode="&#x17b;" horiz-adv-x="1296" 
d="M1191 1449v-36q0 -22 -14 -42l-920 -1284h926v-87h-1065v38q0 19 12 37l922 1287h-908v87h1047zM583 1717q-1 58 53 82q16 7 42 7t54 -27t28 -53t-8 -42q-27 -54 -83 -54t-79 54q-7 16 -7 33z" />
    <glyph glyph-name="zdotaccent" unicode="&#x17c;" horiz-adv-x="925" 
d="M846 978q0 -22 -15 -39l-637 -862h626v-77h-744v39q0 17 15 38l640 865h-621v77h736v-41zM568 1348q-26 -55 -83 -55t-84 55q-7 16 -7 34q0 61 54 84t91 -12q36 -34 36 -62q1 -28 -7 -44z" />
    <glyph glyph-name="Zcaron" unicode="&#x17d;" horiz-adv-x="1296" 
d="M1191 1449v-36q0 -22 -14 -42l-920 -1284h926v-87h-1065v38q0 19 12 37l922 1287h-908v87h1047zM460 1783q14 0 34 -10l160 -126q8 -6 17 -15q8 8 17 15l160 126q14 10 35 10h74l-240 -204h-92l-241 204h76z" />
    <glyph glyph-name="zcaron" unicode="&#x17e;" horiz-adv-x="925" 
d="M846 978q0 -22 -15 -39l-637 -862h626v-77h-744v39q0 17 15 38l640 865h-621v77h736v-41zM287 1449q16 0 27 -11l160 -167l11 -14l171 181q9 11 28 11h67l-223 -252h-87l-223 252h69z" />
    <glyph glyph-name="florin" unicode="&#x192;" 
d="M121 -319q1 33 45 33q107 0 188 73t101 229l97 797l-197 10q-27 2 -26 26v40h232l25 195q47 383 431 383v-52q1 -31 -45 -31q-110 0 -191.5 -73.5t-99.5 -228.5l-26 -193h366v-73h-371l-98 -803q-46 -382 -431 -382v50z" />
    <glyph glyph-name="circumflex" unicode="&#x2c6;" horiz-adv-x="599" 
d="M499 1197q-16 0 -28 12l-160 167q-6 4 -11 12q-2 -4 -10 -12l-161 -167q-12 -12 -28 -12h-68l223 252h87l222 -252h-66z" />
    <glyph glyph-name="caron" unicode="&#x2c7;" horiz-adv-x="599" 
d="M101 1449q16 0 28 -11l160 -167l11 -14l11 14l160 167q9 11 28 11h66l-222 -252h-87l-223 252h68z" />
    <glyph glyph-name="uni02C9" unicode="&#x2c9;" horiz-adv-x="599" 
d="M20 1349h559v-67h-559v67z" />
    <glyph glyph-name="breve" unicode="&#x2d8;" horiz-adv-x="599" 
d="M125 1449q0 -186 174.5 -186t174.5 186h71q0 -176 -89 -214.5t-187 -38.5t-156.5 70.5t-58.5 182.5h71z" />
    <glyph glyph-name="dotaccent" unicode="&#x2d9;" horiz-adv-x="599" 
d="M390 1382.5q0 -18.5 -7.5 -34.5t-20 -28t-29 -19.5t-34.5 -7.5t-34.5 7.5t-29 19.5t-19.5 28t-7 34.5t7 35.5t19.5 29t29 19.5t34.5 7.5t34.5 -7.5t29 -19.5t20 -29t7.5 -35.5z" />
    <glyph glyph-name="ring" unicode="&#x2da;" horiz-adv-x="599" 
d="M182 1333q0 -51 33 -83.5t85 -32.5t84.5 32.5t32.5 83.5t-32.5 84t-84.5 33t-85 -33t-33 -84zM123 1333q0 37 14 68t38 53t56 34.5t68 12.5t68 -12.5t56 -34.5t38.5 -53t14.5 -68t-14.5 -67t-38.5 -52.5t-56 -35t-68 -12.5t-68 12.5t-56 35t-38 52.5t-14 67z" />
    <glyph glyph-name="ogonek" unicode="&#x2db;" horiz-adv-x="599" 
d="M353 0q-136 -74 -136 -188q0 -40 33 -68t73 -28t59 6t32.5 12t21.5 11.5t16 5.5t10 -8l16 -35q-63 -54 -152 -54t-137 38.5t-48 105.5q0 94 66 146t96 69z" />
    <glyph glyph-name="tilde" unicode="&#x2dc;" horiz-adv-x="599" 
d="M417 1311q88 0 90 104h60q0 -120 -56.5 -147.5t-90.5 -27.5t-64 17t-58 37t-54 37t-61 17t-57.5 -29.5t-24.5 -75.5h-62q0 122 57.5 148.5t92 26.5t65 -17t57.5 -36.5t53 -36.5t53 -17z" />
    <glyph glyph-name="hungarumlaut" unicode="&#x2dd;" horiz-adv-x="599" 
d="M415 1189h-48l186 244q13 17 24.5 24.5t35.5 7.5h76l-236 -259q-14 -17 -38 -17zM170 1189h-43l156 244q21 32 60 32h68l-203 -259q-14 -17 -38 -17z" />
    <glyph glyph-name="pi" unicode="&#x3c0;" horiz-adv-x="1202" 
d="M279 945h-207v35q0 13 10.5 26t31.5 13h1052v-37q0 -14 -9.5 -25.5t-28.5 -11.5h-176v-945h-97v945h-479v-724q0 -113 -56 -172t-144 -59t-129 23l5 40q5 14 19 15l61 -6q146 0 147 160v723z" />
    <glyph glyph-name="endash" unicode="&#x2013;" horiz-adv-x="1107" 
d="M151 629h805v-73h-805v73z" />
    <glyph glyph-name="emdash" unicode="&#x2014;" horiz-adv-x="1629" 
d="M151 629h1328v-73h-1328v73z" />
    <glyph glyph-name="quoteleft" unicode="&#x2018;" horiz-adv-x="404" 
d="M133 1237q0 151 140 288l28 -19q8 -6 8 -14q-1 -8 -23 -36q-74 -95 -73 -171q0 -76 36 -139q5 -8 5 -20t-15 -17l-64 -27q-42 75 -42 155z" />
    <glyph glyph-name="quoteright" unicode="&#x2019;" horiz-adv-x="404" 
d="M289 1359q0 -154 -141 -289l-28 19q-7 6 -6.5 14.5t22.5 36.5t47.5 80t25.5 109t-36 120q-5 8 -5 19t15 18l63 26q43 -72 43 -153z" />
    <glyph glyph-name="quotesinglbase" unicode="&#x201a;" horiz-adv-x="404" 
d="M289 27q0 -154 -141 -289l-28 18q-7 6 -6.5 15t22.5 37t47.5 80t25.5 109t-36 120q-5 8 -5 19t15 18l63 26q43 -72 43 -153z" />
    <glyph glyph-name="quotedblleft" unicode="&#x201c;" horiz-adv-x="680" 
d="M409 1237q0 153 140 288l28 -19q8 -6 8 -14q-1 -8 -23 -36q-74 -96 -74 -172q0 -75 36 -138q5 -8 5 -20t-15 -17l-63 -27q-42 75 -42 155zM133 1237q0 151 140 288l28 -19q8 -6 8 -14q-1 -8 -23 -36q-74 -95 -73 -171q0 -76 36 -139q5 -8 5 -20t-15 -17l-64 -27
q-42 75 -42 155z" />
    <glyph glyph-name="quotedblright" unicode="&#x201d;" horiz-adv-x="680" 
d="M564 1359q0 -153 -140 -289l-29 19q-7 6 -7 14.5t22 36.5t48 80t26 109t-35 120q-16 26 10 37l62 26q43 -72 43 -153zM289 1359q0 -154 -141 -289l-28 19q-7 6 -6.5 14.5t22.5 36.5t47.5 80t25.5 109t-36 120q-5 8 -5 19t15 18l63 26q43 -72 43 -153z" />
    <glyph glyph-name="quotedblbase" unicode="&#x201e;" horiz-adv-x="680" 
d="M564 27q0 -153 -140 -289l-29 18q-7 6 -7 15t22 37t48 80t26 109t-35 120q-16 26 10 37l62 26q43 -72 43 -153zM289 27q0 -154 -141 -289l-28 18q-7 6 -6.5 15t22.5 37t47.5 80t25.5 109t-36 120q-5 8 -5 19t15 18l63 26q43 -72 43 -153z" />
    <glyph glyph-name="dagger" unicode="&#x2020;" 
d="M1020 946v-33h-390v-506l13 -764q-55 -30 -103 0l13 764v506h-389v33q0 17 11.5 31.5t35.5 14.5l342 -20l-13 494q55 30 103 0l-13 -494l342 20q24 0 36 -14t12 -32z" />
    <glyph glyph-name="daggerdbl" unicode="&#x2021;" 
d="M164 162v33h389v718h-389v33q0 17 11.5 31.5t35.5 14.5l342 -20l-13 494q55 30 103 0l-13 -494l342 20q24 0 36 -14t12 -32v-33h-390v-718h390v-33q0 -17 -12.5 -31t-35.5 -14l-342 20l13 -494q-55 -30 -103 0l13 494l-342 -20q-24 0 -35.5 13.5t-11.5 31.5z" />
    <glyph glyph-name="bullet" unicode="&#x2022;" 
d="M807 824q87 -89 87 -212q0 -124 -88 -212t-212 -88t-212.5 88t-88.5 212t87.5 212.5t213.5 88.5t213 -89z" />
    <glyph glyph-name="ellipsis" unicode="&#x2026;" horiz-adv-x="1409" 
d="M636 145.5q27 28.5 57 28.5q51 0 78.5 -29t27.5 -57q0 -46 -27 -74.5t-68 -28.5t-68 27t-27 66t27 67.5zM1139.5 146.5q27.5 27.5 56.5 27.5q51 0 78.5 -29t27.5 -57q0 -46 -27 -74.5t-68 -28.5t-68 27t-27 67t27.5 67.5zM134.5 146q26.5 28 56.5 28q50 0 78 -28t28 -58
q0 -48 -27.5 -75.5t-67.5 -27.5t-67 27t-27 67q0 39 26.5 67z" />
    <glyph glyph-name="perthousand" unicode="&#x2030;" horiz-adv-x="2312" 
d="M2144 344q0 79 -18 136t-48.5 93t-72 53t-87.5 17t-87.5 -17t-72.5 -53t-48.5 -93t-17.5 -136t17.5 -134.5t48.5 -91.5t72.5 -52.5t87.5 -16.5t87.5 16.5t72 52.5t48.5 91.5t18 134.5zM2135 77.5q-87 -94.5 -219 -94.5q-131 0 -216.5 94t-85.5 267q0 174 85 269.5
t218 95.5t219 -95t86 -268q0 -174 -87 -268.5zM1403 344q0 79 -18 136t-48.5 93t-72 53t-88 17t-87.5 -17t-72 -53t-49 -93t-18 -136t18 -134.5t49 -91.5t72 -52.5t87.5 -16.5t88 16.5t72 52.5t48.5 91.5t18 134.5zM1394 77.5q-87 -94.5 -220 -94.5q-132 0 -217 94.5
t-85 266.5t85 268.5t219 96.5t219.5 -95t85.5 -268q0 -174 -87 -268.5zM1286 1449h69l-1041 -1431q-13 -18 -35 -18h-70l1039 1431q14 18 38 18zM621 1101q0 79 -18 135t-49.5 92.5t-73 53.5t-87.5 17t-87 -17t-71.5 -53.5t-48.5 -92.5t-18 -135t18 -135t48.5 -91.5
t71.5 -52.5t87 -17t87.5 17t73 52.5t49.5 91.5t18 135zM610.5 834q-87.5 -95 -219.5 -95t-217 94.5t-85 268.5t85 268.5t218 94.5t219.5 -95t86.5 -268t-87.5 -268z" />
    <glyph glyph-name="guilsinglleft" unicode="&#x2039;" horiz-adv-x="633" 
d="M159 525v14l247 387l30 -16q29 -18 9 -49l-187 -300q-13 -20 -22 -30q10 -8 22 -28l187 -301q20 -32 -9 -49l-30 -16z" />
    <glyph glyph-name="guilsinglright" unicode="&#x203a;" horiz-adv-x="633" 
d="M180 886q0 14 18 24l30 16l247 -387v-14l-247 -388l-30 16q-30 16 -11 49l188 301q10 18 22 28q-12 12 -22 30l-188 300q-7 11 -7 25z" />
    <glyph glyph-name="fraction" unicode="&#x2044;" horiz-adv-x="508" 
d="M669 1449h43l-822 -1417q-20 -32 -56 -32h-41l819 1413q21 36 57 36z" />
    <glyph glyph-name="Euro" unicode="&#x20ac;" 
d="M32 583v60h161l-2 40t-1 56t4 85h-162v60h168q32 270 179 424.5t370 154.5q188 0 271.5 -67.5t121.5 -111.5l-32 -36q-10 -12 -20.5 -12t-21.5 10.5t-46.5 42t-100.5 60.5t-162 29q-192 0 -310.5 -127.5t-148.5 -366.5h616v-31q0 -29 -32 -29h-590q-3 -48 -3 -94t2 -87
h529v-31q0 -29 -31 -29h-493q39 -380 196.5 -447t235.5 -67t127 12t96 36t94 72.5t58 48.5q10 0 19 -10l38 -35q-164 -208 -409 -208t-386 156.5t-169 441.5h-166z" />
    <glyph glyph-name="trademark" unicode="&#x2122;" horiz-adv-x="1461" 
d="M556 1449v-60h-204v-529h-72v529h-206v60h482zM1258 1449h59v-589h-64v454l5 45l-224 -389q-8 -16 -25 -17h-12q-17 0 -25 17l-229 387l6 -43v-454h-65v589h58q16 0 27 -12l222 -373l11 -30q5 16 14 30l218 373q8 12 24 12z" />
    <glyph glyph-name="Omega" unicode="&#x2126;" horiz-adv-x="1546" 
d="M888 372q440 90 440 505q0 117 -44 213.5t-119.5 161t-176.5 96.5t-278 32t-334.5 -134t-157.5 -381q0 -302 170.5 -387.5t268.5 -105.5v-372h-513q-38 0 -38 37v53h468v227q-208 48 -335.5 190.5t-127.5 361.5q0 274 189 435t473 161t473 -161.5t189 -434.5
q0 -217 -127 -360.5t-336 -191.5v-227h467v-53q0 -16 -10.5 -26.5t-27.5 -10.5h-513v372z" />
    <glyph glyph-name="partialdiff" unicode="&#x2202;" 
d="M795.5 206.5q117.5 140.5 157.5 387.5q-37 190 -133 236t-182 46t-165 -37.5t-163 -137.5t-84 -310q0 -151 77.5 -238t225.5 -87q149 0 266.5 140.5zM986 925q0 223 -76.5 343t-222.5 120q-99 0 -160.5 -34t-74.5 -34t-21 17l-20 36q139 94 287 94q179 0 278.5 -143.5
t99.5 -371.5q0 -446 -150 -705t-428 -259q-167 0 -269.5 108t-102.5 293q0 238 144 401t371 163q177 0 245 -87.5t91 -147.5q9 90 9 207z" />
    <glyph glyph-name="Delta" unicode="&#x2206;" horiz-adv-x="1335" 
d="M160 85h1016l-482 1173q-14 34 -26 78q-8 -29 -27 -79zM621 1449h94l603 -1449h-1301z" />
    <glyph glyph-name="product" unicode="&#x220f;" horiz-adv-x="1396" 
d="M1317 1449v-84h-215v-1725h-101v1725h-607v-1725h-100v1725h-215v84h1238z" />
    <glyph glyph-name="summation" unicode="&#x2211;" horiz-adv-x="1396" 
d="M89 1449h1218v-84h-1065l660 -807v-27l-660 -807h1065v-84h-1218v36q0 18 11 33l690 837l-689 833q-12 13 -12 33v37z" />
    <glyph glyph-name="minus" unicode="&#x2212;" 
d="M168 724h849v-75h-849v75z" />
    <glyph glyph-name="radical" unicode="&#x221a;" horiz-adv-x="1149" 
d="M81 707q-40 0 -40 42v30h321q27 0 37 -25l212 -552q14 -47 21 -89q6 38 16 77l500 1546q9 24 35 24h59l-571 -1760h-81l-274 707h-235z" />
    <glyph glyph-name="infinity" unicode="&#x221e;" horiz-adv-x="1396" 
d="M1181 432q61 63 61 173t-61.5 173t-153.5 63q-116 0 -183.5 -95.5t-98.5 -141.5q81 -121 140 -178t147 -57t149 63zM517 428.5q61 59.5 137 175.5q-85 126 -121.5 162t-75 55.5t-83.5 19.5t-84.5 -16t-69.5 -45.5t-46.5 -73.5t-16.5 -101t16.5 -101t62 -89.5t133 -45.5
t148.5 59.5zM545 352q-74 -63 -185 -63t-197.5 87.5t-86.5 228.5t86 228.5t219 87.5t210 -99.5t108 -146.5q81 118 155 182t186 64t198 -87.5t86 -228.5t-86 -228.5t-207 -87.5q-102 0 -178.5 64t-153.5 182q-80 -120 -154 -183z" />
    <glyph glyph-name="integral" unicode="&#x222b;" horiz-adv-x="788" 
d="M738 1465q77 0 125 -24l-5 -44q-5 -16 -31 -16l-64 1q-167 0 -212.5 -103.5t-54.5 -177.5l-136 -1088q-34 -290 -164 -335.5t-207 -45.5t-119 24l7 40q5 15 24 15l74 -4q254 0 291 304l135 1101q19 172 111 262.5t226 90.5z" />
    <glyph glyph-name="approxequal" unicode="&#x2248;" 
d="M396 625q75 0 208.5 -59.5t191.5 -59.5q57 0 102 23t67 52l19 -60q-62 -91 -189 -91q-74 0 -166 41t-141.5 59.5t-101.5 18.5t-96 -23t-66 -53l-21 57q64 95 193 95zM396 948q75 0 208.5 -59.5t191.5 -59.5q57 0 102 23.5t67 51.5l19 -59q-30 -44 -81 -68t-106 -24
q-76 0 -208.5 59t-192.5 59q-61 0 -105.5 -23t-66.5 -52l-21 57q64 95 193 95z" />
    <glyph glyph-name="notequal" unicode="&#x2260;" 
d="M170 890h487l120 273h73l-119 -273h286v-76h-320l-106 -245h426v-75h-459l-121 -278h-73l120 278h-314v75h348l107 245h-455v76z" />
    <glyph glyph-name="lessequal" unicode="&#x2264;" 
d="M164 157h768v-75h-768v75zM932 1066q0 -24 -31 -38l-563 -277q-29 -14 -79 -25q52 -12 79 -26l562 -278q32 -17 32 -37v-64l-768 385v40l768 383v-63z" />
    <glyph glyph-name="greaterequal" unicode="&#x2265;" 
d="M1024 82h-768v75h768v-75zM256 385q0 23 31 37l563 278q34 16 78 26q-54 12 -78 25l-563 277q-31 15 -31 38v63l768 -383v-40l-768 -385v64z" />
    <glyph glyph-name="lozenge" unicode="&#x25ca;" 
d="M232 694l340 -701q14 -27 21 -60q11 39 21 60l342 701l-342 702q-10 19 -21 59q-9 -32 -21 -59zM148 694l412 852h68l411 -852l-411 -852h-68z" />
    <glyph glyph-name="uni2669" unicode="&#x2669;" horiz-adv-x="0" 
d="M-2 1490h4v-1850h-4v1850z" />
    <glyph glyph-name="undercommaaccent" horiz-adv-x="599" 
d="M322 -93q24 0 24 -30t-22 -104t-32 -108t-18.5 -40t-24.5 -6h-33l49 288h57z" />
    <glyph glyph-name="grave.case" horiz-adv-x="599" 
d="M119 1812q38 0 62 -22l234 -211h-73q-24 0 -39 12l-300 221h116z" />
    <glyph glyph-name="dieresis.case" horiz-adv-x="599" 
d="M595 1705q0 -34 -25.5 -57.5t-50.5 -23.5q-41 0 -65.5 23.5t-24.5 57.5t24.5 59t49.5 25t40 -6.5t33.5 -25t18.5 -52.5zM169 1705q0 -16 -7 -31t-18.5 -26t-27 -17.5t-31.5 -6.5t-31 6.5t-26.5 17.5t-18 26t-6.5 31t6.5 31.5t18 27.5t26.5 18.5t31 6.5t31.5 -6.5
t27 -18.5t18.5 -27.5t7 -31.5z" />
    <glyph glyph-name="macron.case" horiz-adv-x="599" 
d="M87 1689h425v-62h-425v62z" />
    <glyph glyph-name="acute.case" horiz-adv-x="599" 
d="M261 1579h-72l233 211q24 22 63 22h115l-299 -221q-17 -12 -40 -12z" />
    <glyph glyph-name="circumflex.case" horiz-adv-x="599" 
d="M511 1579q-21 0 -35 10l-160 126q-12 9 -16 15q-9 -9 -17 -15l-161 -126q-14 -10 -34 -10h-76l241 204h92l241 -204h-75z" />
    <glyph glyph-name="caron.case" horiz-adv-x="599" 
d="M88 1783q20 0 34 -10l161 -126q8 -6 11 -9.5t5 -3.5t17 13l160 126q14 10 35 10h75l-241 -204h-92l-241 204h76z" />
    <glyph glyph-name="breve.case" horiz-adv-x="599" 
d="M299 1627q182 0 182 156h66q0 -100 -60.5 -159.5t-248 -59.5t-187.5 219h66q0 -156 182 -156z" />
    <glyph glyph-name="dotaccent.case" horiz-adv-x="599" 
d="M388 1718q0 -18 -7.5 -34t-20 -27.5t-29 -19t-41.5 -7.5t-52 25.5t-27 52.5t7 43t19 28.5t28 19.5t33 7t33.5 -7t29 -19.5t20 -28t7.5 -33.5z" />
    <glyph glyph-name="ring.case" horiz-adv-x="599" 
d="M182 1669q0 -51 33 -84t85 -33t84.5 33t32.5 84t-32.5 84t-84.5 33t-85 -33t-33 -84zM128 1668q0 36 14 66t37 51.5t54 34t84 12.5t103.5 -47t50.5 -116t-50 -115.5t-141.5 -46.5t-121.5 62.5t-30 98.5z" />
    <glyph glyph-name="tilde.case" horiz-adv-x="599" 
d="M430 1655q36 0 58 28t23 72h55q0 -72 -36.5 -120t-93.5 -48t-111 35.5t-80.5 52t-62.5 16.5t-58 -29t-24 -72h-57q0 73 28 108t55 47.5t61.5 12.5t65.5 -16.5t59.5 -35t55 -35t62.5 -16.5z" />
    <glyph glyph-name="hungarumlaut.case" horiz-adv-x="599" 
d="M432 1579h-53l185 196q32 32 68 32h77l-236 -211q-23 -17 -41 -17zM157 1579h-48l156 196q26 32 66 32h66l-202 -211q-15 -17 -38 -17z" />
    <glyph glyph-name="caron.salt" horiz-adv-x="599" 
d="M349 1492q25 0 25 -31t-68 -253q-9 -25 -38 -25h-32l52 309h61z" />
    </font>
</defs>
</svg>
